<?xml version="1.0" encoding="UTF-8" standalone="no"?>
<!-- Created with Inkscape (http://www.inkscape.org/) -->

<svg
   xmlns:ns0="http://www.iki.fi/pav/software/textext/"
   xmlns:dc="http://purl.org/dc/elements/1.1/"
   xmlns:cc="http://creativecommons.org/ns#"
   xmlns:rdf="http://www.w3.org/1999/02/22-rdf-syntax-ns#"
   xmlns:svg="http://www.w3.org/2000/svg"
   xmlns="http://www.w3.org/2000/svg"
   xmlns:sodipodi="http://sodipodi.sourceforge.net/DTD/sodipodi-0.dtd"
   xmlns:inkscape="http://www.inkscape.org/namespaces/inkscape"
   width="744.09448819"
   height="1052.3622047"
   id="svg2"
   version="1.1"
   inkscape:version="0.48.4 r9939"
   sodipodi:docname="staggered_grid.svg"
   inkscape:export-filename="/home/tbent/projects/viscosaur/writing/AM201projection/staggered_grid.png"
   inkscape:export-xdpi="300"
   inkscape:export-ydpi="300">
  <sodipodi:namedview
     id="base"
     pagecolor="#ffffff"
     bordercolor="#666666"
     borderopacity="1.0"
     inkscape:pageopacity="0.0"
     inkscape:pageshadow="2"
     inkscape:zoom="1.4"
     inkscape:cx="259.83213"
     inkscape:cy="851.68787"
     inkscape:document-units="px"
     inkscape:current-layer="layer1"
     showgrid="false"
     inkscape:window-width="1375"
     inkscape:window-height="876"
     inkscape:window-x="65"
     inkscape:window-y="204"
     inkscape:window-maximized="1" />
  <defs
     id="defs4">
    <marker
       inkscape:stockid="Arrow2Lend"
       orient="auto"
       refY="0.0"
       refX="0.0"
       id="Arrow2Lend"
       style="overflow:visible;">
      <path
         id="path3987"
         style="fill-rule:evenodd;stroke-width:0.62500000;stroke-linejoin:round;"
         d="M 8.7185878,4.0337352 L -2.2072895,0.016013256 L 8.7185884,-4.0017078 C 6.9730900,-1.6296469 6.9831476,1.6157441 8.7185878,4.0337352 z "
         transform="scale(1.1) rotate(180) translate(1,0)" />
    </marker>
    <marker
       inkscape:stockid="Arrow1Lend"
       orient="auto"
       refY="0.0"
       refX="0.0"
       id="Arrow1Lend"
       style="overflow:visible;">
      <path
         id="path3969"
         d="M 0.0,0.0 L 5.0,-5.0 L -12.5,0.0 L 5.0,5.0 L 0.0,0.0 z "
         style="fill-rule:evenodd;stroke:#000000;stroke-width:1.0pt;"
         transform="scale(0.8) rotate(180) translate(12.5,0)" />
    </marker>
    <marker
       inkscape:stockid="Arrow2Lstart"
       orient="auto"
       refY="0.0"
       refX="0.0"
       id="Arrow2Lstart"
       style="overflow:visible">
      <path
         id="path3984"
         style="fill-rule:evenodd;stroke-width:0.62500000;stroke-linejoin:round"
         d="M 8.7185878,4.0337352 L -2.2072895,0.016013256 L 8.7185884,-4.0017078 C 6.9730900,-1.6296469 6.9831476,1.6157441 8.7185878,4.0337352 z "
         transform="scale(1.1) translate(1,0)" />
    </marker>
    <marker
       inkscape:stockid="Arrow1Mstart"
       orient="auto"
       refY="0.0"
       refX="0.0"
       id="Arrow1Mstart"
       style="overflow:visible">
      <path
         id="path3972"
         d="M 0.0,0.0 L 5.0,-5.0 L -12.5,0.0 L 5.0,5.0 L 0.0,0.0 z "
         style="fill-rule:evenodd;stroke:#000000;stroke-width:1.0pt"
         transform="scale(0.4) translate(10,0)" />
    </marker>
    <inkscape:perspective
       sodipodi:type="inkscape:persp3d"
       inkscape:vp_x="0 : 526.18109 : 1"
       inkscape:vp_y="0 : 1000 : 0"
       inkscape:vp_z="744.09448 : 526.18109 : 1"
       inkscape:persp3d-origin="372.04724 : 350.78739 : 1"
       id="perspective3146" />
  </defs>
  <metadata
     id="metadata7">
    <rdf:RDF>
      <cc:Work
         rdf:about="">
        <dc:format>image/svg+xml</dc:format>
        <dc:type
           rdf:resource="http://purl.org/dc/dcmitype/StillImage" />
        <dc:title></dc:title>
      </cc:Work>
    </rdf:RDF>
  </metadata>
  <g
     inkscape:label="Layer 1"
     inkscape:groupmode="layer"
     id="layer1">
    <rect
       style="color:#000000;fill:#ff0000;fill-opacity:0.31372549;fill-rule:nonzero;stroke:#000000;stroke-width:1px;stroke-linecap:butt;stroke-linejoin:miter;stroke-miterlimit:4;stroke-opacity:1;stroke-dasharray:none;stroke-dashoffset:0;marker:none;visibility:visible;display:inline;overflow:visible;enable-background:accumulate"
       id="rect2985"
       width="21.213203"
       height="21.213203"
       x="93.944183"
       y="73.524368" />
    <rect
       style="color:#000000;fill:#ff0000;fill-opacity:0.31372549000000000;fill-rule:nonzero;stroke:#000000;stroke-width:1px;stroke-linecap:butt;stroke-linejoin:miter;stroke-miterlimit:4;stroke-opacity:1;stroke-dasharray:none;stroke-dashoffset:0;marker:none;visibility:visible;display:inline;overflow:visible;enable-background:accumulate"
       id="rect2985-5"
       width="21.213203"
       height="21.213203"
       x="173.94418"
       y="73.524376" />
    <rect
       style="color:#000000;fill:#ff0000;fill-opacity:0.31372549;fill-rule:nonzero;stroke:#000000;stroke-width:1px;stroke-linecap:butt;stroke-linejoin:miter;stroke-miterlimit:4;stroke-opacity:1;stroke-dasharray:none;stroke-dashoffset:0;marker:none;visibility:visible;display:inline;overflow:visible;enable-background:accumulate"
       id="rect2985-5-6"
       width="21.213203"
       height="21.213203"
       x="253.94418"
       y="73.524376" />
    <rect
       style="color:#000000;fill:#ff0000;fill-opacity:0.31372549;fill-rule:nonzero;stroke:#000000;stroke-width:1px;stroke-linecap:butt;stroke-linejoin:miter;stroke-miterlimit:4;stroke-opacity:1;stroke-dasharray:none;stroke-dashoffset:0;marker:none;visibility:visible;display:inline;overflow:visible;enable-background:accumulate"
       id="rect2985-5-6-2"
       width="21.213203"
       height="21.213203"
       x="253.94418"
       y="153.52438" />
    <rect
       style="color:#000000;fill:#ff0000;fill-opacity:0.31372549;fill-rule:nonzero;stroke:#000000;stroke-width:1px;stroke-linecap:butt;stroke-linejoin:miter;stroke-miterlimit:4;stroke-opacity:1;stroke-dasharray:none;stroke-dashoffset:0;marker:none;visibility:visible;display:inline;overflow:visible;enable-background:accumulate"
       id="rect2985-5-6-2-9"
       width="21.213203"
       height="21.213203"
       x="253.94418"
       y="233.52438" />
    <rect
       style="color:#000000;fill:#ff0000;fill-opacity:0.31372549;fill-rule:nonzero;stroke:#000000;stroke-width:1px;stroke-linecap:butt;stroke-linejoin:miter;stroke-miterlimit:4;stroke-opacity:1;stroke-dasharray:none;stroke-dashoffset:0;marker:none;visibility:visible;display:inline;overflow:visible;enable-background:accumulate"
       id="rect2985-5-6-2-9-7"
       width="21.213203"
       height="21.213203"
       x="173.94418"
       y="233.52438" />
    <rect
       style="color:#000000;fill:#ff0000;fill-opacity:0.31372549;fill-rule:nonzero;stroke:#000000;stroke-width:1px;stroke-linecap:butt;stroke-linejoin:miter;stroke-miterlimit:4;stroke-opacity:1;stroke-dasharray:none;stroke-dashoffset:0;marker:none;visibility:visible;display:inline;overflow:visible;enable-background:accumulate"
       id="rect2985-5-6-2-9-6"
       width="21.213203"
       height="21.213203"
       x="173.94418"
       y="153.52438" />
    <rect
       style="color:#000000;fill:#ff0000;fill-opacity:0.31372549;fill-rule:nonzero;stroke:#000000;stroke-width:1px;stroke-linecap:butt;stroke-linejoin:miter;stroke-miterlimit:4;stroke-opacity:1;stroke-dasharray:none;stroke-dashoffset:0;marker:none;visibility:visible;display:inline;overflow:visible;enable-background:accumulate"
       id="rect2985-5-6-2-9-5"
       width="21.213203"
       height="21.213203"
       x="93.944183"
       y="233.52438" />
    <rect
       style="color:#000000;fill:#ff0000;fill-opacity:0.31372549;fill-rule:nonzero;stroke:#000000;stroke-width:1px;stroke-linecap:butt;stroke-linejoin:miter;stroke-miterlimit:4;stroke-opacity:1;stroke-dasharray:none;stroke-dashoffset:0;marker:none;visibility:visible;display:inline;overflow:visible;enable-background:accumulate"
       id="rect2985-5-6-2-9-73"
       width="21.213203"
       height="21.213203"
       x="93.944183"
       y="153.52438" />
    <path
       sodipodi:type="star"
       style="color:#000000;fill:#6300ff;fill-opacity:0.3137255;fill-rule:nonzero;stroke:#000000;stroke-width:1px;stroke-linecap:butt;stroke-linejoin:miter;stroke-miterlimit:4;stroke-opacity:1;stroke-dasharray:none;stroke-dashoffset:0;marker:none;visibility:visible;display:inline;overflow:visible;enable-background:accumulate"
       id="path3164"
       sodipodi:sides="5"
       sodipodi:cx="101.25"
       sodipodi:cy="121.29075"
       sodipodi:r1="11.792476"
       sodipodi:r2="9.3302488"
       sodipodi:arg1="0.55859932"
       sodipodi:arg2="1.1578945"
       inkscape:flatsided="false"
       inkscape:rounded="0"
       inkscape:randomized="0"
       d="m 111.25,127.54075 -6.25606,2.29614 -6.597873,2.89578 -4.116986,-5.24032 -4.792908,-5.38011 3.711623,-5.53483 3.635692,-6.22087 6.410892,1.81961 7.03989,1.53539 0.25053,6.65941 z"
       inkscape:transform-center-x="0.42008998"
       inkscape:transform-center-y="0.25385632"
       transform="translate(4,2)" />
    <path
       sodipodi:type="star"
       style="color:#000000;fill:#6300ff;fill-opacity:0.31372549;fill-rule:nonzero;stroke:#000000;stroke-width:1px;stroke-linecap:butt;stroke-linejoin:miter;stroke-miterlimit:4;stroke-opacity:1;stroke-dasharray:none;stroke-dashoffset:0;marker:none;visibility:visible;display:inline;overflow:visible;enable-background:accumulate"
       id="path3164-4"
       sodipodi:sides="5"
       sodipodi:cx="101.25"
       sodipodi:cy="121.29075"
       sodipodi:r1="11.792476"
       sodipodi:r2="9.3302488"
       sodipodi:arg1="0.55859932"
       sodipodi:arg2="1.1578945"
       inkscape:flatsided="false"
       inkscape:rounded="0"
       inkscape:randomized="0"
       d="m 111.25,127.54075 -6.25606,2.29614 -6.597873,2.89578 -4.116986,-5.24032 -4.792908,-5.38011 3.711623,-5.53483 3.635692,-6.22087 6.410892,1.81961 7.03989,1.53539 0.25053,6.65941 z"
       inkscape:transform-center-x="0.42008998"
       inkscape:transform-center-y="0.25385632"
       transform="translate(84,2.0000021)" />
    <path
       sodipodi:type="star"
       style="color:#000000;fill:#6300ff;fill-opacity:0.31372549;fill-rule:nonzero;stroke:#000000;stroke-width:1px;stroke-linecap:butt;stroke-linejoin:miter;stroke-miterlimit:4;stroke-opacity:1;stroke-dasharray:none;stroke-dashoffset:0;marker:none;visibility:visible;display:inline;overflow:visible;enable-background:accumulate"
       id="path3164-9"
       sodipodi:sides="5"
       sodipodi:cx="101.25"
       sodipodi:cy="121.29075"
       sodipodi:r1="11.792476"
       sodipodi:r2="9.3302488"
       sodipodi:arg1="0.55859932"
       sodipodi:arg2="1.1578945"
       inkscape:flatsided="false"
       inkscape:rounded="0"
       inkscape:randomized="0"
       d="m 111.25,127.54075 -6.25606,2.29614 -6.597873,2.89578 -4.116986,-5.24032 -4.792908,-5.38011 3.711623,-5.53483 3.635692,-6.22087 6.410892,1.81961 7.03989,1.53539 0.25053,6.65941 z"
       inkscape:transform-center-x="0.42008998"
       inkscape:transform-center-y="0.25385632"
       transform="translate(164,2.0000021)" />
    <path
       sodipodi:type="star"
       style="color:#000000;fill:#6300ff;fill-opacity:0.31372549;fill-rule:nonzero;stroke:#000000;stroke-width:1px;stroke-linecap:butt;stroke-linejoin:miter;stroke-miterlimit:4;stroke-opacity:1;stroke-dasharray:none;stroke-dashoffset:0;marker:none;visibility:visible;display:inline;overflow:visible;enable-background:accumulate"
       id="path3164-6"
       sodipodi:sides="5"
       sodipodi:cx="101.25"
       sodipodi:cy="121.29075"
       sodipodi:r1="11.792476"
       sodipodi:r2="9.3302488"
       sodipodi:arg1="0.55859932"
       sodipodi:arg2="1.1578945"
       inkscape:flatsided="false"
       inkscape:rounded="0"
       inkscape:randomized="0"
       d="m 111.25,127.54075 -6.25606,2.29614 -6.597873,2.89578 -4.116986,-5.24032 -4.792908,-5.38011 3.711623,-5.53483 3.635692,-6.22087 6.410892,1.81961 7.03989,1.53539 0.25053,6.65941 z"
       inkscape:transform-center-x="0.42008998"
       inkscape:transform-center-y="0.25385632"
       transform="translate(4.0000001,82.000002)" />
    <path
       sodipodi:type="star"
       style="color:#000000;fill:#6300ff;fill-opacity:0.31372549;fill-rule:nonzero;stroke:#000000;stroke-width:1px;stroke-linecap:butt;stroke-linejoin:miter;stroke-miterlimit:4;stroke-opacity:1;stroke-dasharray:none;stroke-dashoffset:0;marker:none;visibility:visible;display:inline;overflow:visible;enable-background:accumulate"
       id="path3164-5"
       sodipodi:sides="5"
       sodipodi:cx="101.25"
       sodipodi:cy="121.29075"
       sodipodi:r1="11.792476"
       sodipodi:r2="9.3302488"
       sodipodi:arg1="0.55859932"
       sodipodi:arg2="1.1578945"
       inkscape:flatsided="false"
       inkscape:rounded="0"
       inkscape:randomized="0"
       d="m 111.25,127.54075 -6.25606,2.29614 -6.597873,2.89578 -4.116986,-5.24032 -4.792908,-5.38011 3.711623,-5.53483 3.635692,-6.22087 6.410892,1.81961 7.03989,1.53539 0.25053,6.65941 z"
       inkscape:transform-center-x="0.42008998"
       inkscape:transform-center-y="0.25385632"
       transform="translate(84,82.000002)" />
    <path
       sodipodi:type="star"
       style="color:#000000;fill:#6300ff;fill-opacity:0.31372549;fill-rule:nonzero;stroke:#000000;stroke-width:1px;stroke-linecap:butt;stroke-linejoin:miter;stroke-miterlimit:4;stroke-opacity:1;stroke-dasharray:none;stroke-dashoffset:0;marker:none;visibility:visible;display:inline;overflow:visible;enable-background:accumulate"
       id="path3164-69"
       sodipodi:sides="5"
       sodipodi:cx="101.25"
       sodipodi:cy="121.29075"
       sodipodi:r1="11.792476"
       sodipodi:r2="9.3302488"
       sodipodi:arg1="0.55859932"
       sodipodi:arg2="1.1578945"
       inkscape:flatsided="false"
       inkscape:rounded="0"
       inkscape:randomized="0"
       d="m 111.25,127.54075 -6.25606,2.29614 -6.597873,2.89578 -4.116986,-5.24032 -4.792908,-5.38011 3.711623,-5.53483 3.635692,-6.22087 6.410892,1.81961 7.03989,1.53539 0.25053,6.65941 z"
       inkscape:transform-center-x="0.42008998"
       inkscape:transform-center-y="0.25385632"
       transform="translate(164,82.000002)" />
    <path
       sodipodi:type="arc"
       style="color:#000000;fill:#6300ff;fill-opacity:0.32156863;fill-rule:nonzero;stroke:#000000;stroke-width:1px;stroke-linecap:butt;stroke-linejoin:miter;stroke-miterlimit:4;stroke-opacity:1;stroke-dasharray:none;stroke-dashoffset:0;marker:none;visibility:visible;display:inline;overflow:visible;enable-background:accumulate"
       id="path3980"
       sodipodi:cx="143.92857"
       sodipodi:cy="89.147896"
       sodipodi:rx="11.071428"
       sodipodi:ry="11.071428"
       d="m 155,89.147896 a 11.071428,11.071428 0 1 1 -22.14285,0 11.071428,11.071428 0 1 1 22.14285,0 z"
       transform="translate(1.4285714,-5)" />
    <path
       sodipodi:type="arc"
       style="color:#000000;fill:#6300ff;fill-opacity:0.32156863;fill-rule:nonzero;stroke:#000000;stroke-width:1px;stroke-linecap:butt;stroke-linejoin:miter;stroke-miterlimit:4;stroke-opacity:1;stroke-dasharray:none;stroke-dashoffset:0;marker:none;visibility:visible;display:inline;overflow:visible;enable-background:accumulate"
       id="path3980-4"
       sodipodi:cx="143.92857"
       sodipodi:cy="89.147896"
       sodipodi:rx="11.071428"
       sodipodi:ry="11.071428"
       d="m 155,89.147896 a 11.071428,11.071428 0 1 1 -22.14285,0 11.071428,11.071428 0 1 1 22.14285,0 z"
       transform="translate(81.42857,-5.0000049)" />
    <path
       sodipodi:type="arc"
       style="color:#000000;fill:#6300ff;fill-opacity:0.32156863;fill-rule:nonzero;stroke:#000000;stroke-width:1px;stroke-linecap:butt;stroke-linejoin:miter;stroke-miterlimit:4;stroke-opacity:1;stroke-dasharray:none;stroke-dashoffset:0;marker:none;visibility:visible;display:inline;overflow:visible;enable-background:accumulate"
       id="path3980-0"
       sodipodi:cx="143.92857"
       sodipodi:cy="89.147896"
       sodipodi:rx="11.071428"
       sodipodi:ry="11.071428"
       d="m 155,89.147896 a 11.071428,11.071428 0 1 1 -22.14285,0 11.071428,11.071428 0 1 1 22.14285,0 z"
       transform="translate(1.4285747,74.999995)" />
    <path
       sodipodi:type="arc"
       style="color:#000000;fill:#6300ff;fill-opacity:0.32156863;fill-rule:nonzero;stroke:#000000;stroke-width:1px;stroke-linecap:butt;stroke-linejoin:miter;stroke-miterlimit:4;stroke-opacity:1;stroke-dasharray:none;stroke-dashoffset:0;marker:none;visibility:visible;display:inline;overflow:visible;enable-background:accumulate"
       id="path3980-1"
       sodipodi:cx="143.92857"
       sodipodi:cy="89.147896"
       sodipodi:rx="11.071428"
       sodipodi:ry="11.071428"
       d="m 155,89.147896 a 11.071428,11.071428 0 1 1 -22.14285,0 11.071428,11.071428 0 1 1 22.14285,0 z"
       transform="translate(1.4285747,155)" />
    <path
       sodipodi:type="arc"
       style="color:#000000;fill:#6300ff;fill-opacity:0.32156863;fill-rule:nonzero;stroke:#000000;stroke-width:1px;stroke-linecap:butt;stroke-linejoin:miter;stroke-miterlimit:4;stroke-opacity:1;stroke-dasharray:none;stroke-dashoffset:0;marker:none;visibility:visible;display:inline;overflow:visible;enable-background:accumulate"
       id="path3980-11"
       sodipodi:cx="143.92857"
       sodipodi:cy="89.147896"
       sodipodi:rx="11.071428"
       sodipodi:ry="11.071428"
       d="m 155,89.147896 a 11.071428,11.071428 0 1 1 -22.14285,0 11.071428,11.071428 0 1 1 22.14285,0 z"
       transform="translate(81.428575,74.999995)" />
    <path
       sodipodi:type="arc"
       style="color:#000000;fill:#6300ff;fill-opacity:0.32156863;fill-rule:nonzero;stroke:#000000;stroke-width:1px;stroke-linecap:butt;stroke-linejoin:miter;stroke-miterlimit:4;stroke-opacity:1;stroke-dasharray:none;stroke-dashoffset:0;marker:none;visibility:visible;display:inline;overflow:visible;enable-background:accumulate"
       id="path3980-8"
       sodipodi:cx="143.92857"
       sodipodi:cy="89.147896"
       sodipodi:rx="11.071428"
       sodipodi:ry="11.071428"
       d="m 155,89.147896 a 11.071428,11.071428 0 1 1 -22.14285,0 11.071428,11.071428 0 1 1 22.14285,0 z"
       transform="translate(81.428575,155)" />
    <path
       sodipodi:type="arc"
       style="color:#000000;fill:#6300ff;fill-opacity:0.32156863;fill-rule:nonzero;stroke:#000000;stroke-width:1px;stroke-linecap:butt;stroke-linejoin:miter;stroke-miterlimit:4;stroke-opacity:1;stroke-dasharray:none;stroke-dashoffset:0;marker:none;visibility:visible;display:inline;overflow:visible;enable-background:accumulate"
       id="path3980-4-3"
       sodipodi:cx="143.92857"
       sodipodi:cy="89.147896"
       sodipodi:rx="11.071428"
       sodipodi:ry="11.071428"
       d="m 155,89.147896 a 11.071428,11.071428 0 1 1 -22.14285,0 11.071428,11.071428 0 1 1 22.14285,0 z"
       transform="translate(161.42857,-5.000005)" />
    <path
       sodipodi:type="star"
       style="color:#000000;fill:#6300ff;fill-opacity:0.31372549;fill-rule:nonzero;stroke:#000000;stroke-width:1px;stroke-linecap:butt;stroke-linejoin:miter;stroke-miterlimit:4;stroke-opacity:1;stroke-dasharray:none;stroke-dashoffset:0;marker:none;visibility:visible;display:inline;overflow:visible;enable-background:accumulate"
       id="path3164-9-7"
       sodipodi:sides="5"
       sodipodi:cx="101.25"
       sodipodi:cy="121.29075"
       sodipodi:r1="11.792476"
       sodipodi:r2="9.3302488"
       sodipodi:arg1="0.55859932"
       sodipodi:arg2="1.1578945"
       inkscape:flatsided="false"
       inkscape:rounded="0"
       inkscape:randomized="0"
       d="m 111.25,127.54075 -6.25606,2.29614 -6.597873,2.89578 -4.116986,-5.24032 -4.792908,-5.38011 3.711623,-5.53483 3.635692,-6.22087 6.410892,1.81961 7.03989,1.53539 0.25053,6.65941 z"
       inkscape:transform-center-x="0.42008998"
       inkscape:transform-center-y="0.25385632"
       transform="translate(204.63192,-9.182423)" />
    <rect
       style="color:#000000;fill:#ff0000;fill-opacity:0.31372549;fill-rule:nonzero;stroke:#000000;stroke-width:1px;stroke-linecap:butt;stroke-linejoin:miter;stroke-miterlimit:4;stroke-opacity:1;stroke-dasharray:none;stroke-dashoffset:0;marker:none;visibility:visible;display:inline;overflow:visible;enable-background:accumulate"
       id="rect2985-5-6-2-2"
       width="21.213203"
       height="21.213203"
       x="294.3934"
       y="129.61273" />
    <text
       xml:space="preserve"
       style="font-size:16px;font-style:normal;font-weight:normal;line-height:125%;letter-spacing:0px;word-spacing:0px;fill:#000000;fill-opacity:1;stroke:none;font-family:Sans"
       x="321.42856"
       y="149.50504"
       id="text4106"
       sodipodi:linespacing="125%"><tspan
         sodipodi:role="line"
         id="tspan4108"
         x="321.42856"
         y="149.50504">Velocity</tspan></text>
    <text
       xml:space="preserve"
       style="font-size:16px;font-style:normal;font-weight:normal;line-height:125%;letter-spacing:0px;word-spacing:0px;fill:#000000;fill-opacity:1;stroke:none;font-family:Sans"
       x="346.42856"
       y="160.93361"
       id="text4110"
       sodipodi:linespacing="125%"><tspan
         sodipodi:role="line"
         id="tspan4112"
         x="346.42856"
         y="160.93361" /></text>
    <g
       style="font-style:normal;font-variant:normal;font-weight:normal;font-stretch:normal;letter-spacing:normal;word-spacing:normal;text-anchor:start;fill:none;stroke:#000000;stroke-linecap:butt;stroke-linejoin:miter;stroke-miterlimit:10.43299961;stroke-opacity:1;stroke-dasharray:none;stroke-dashoffset:0"
       id="content"
       transform="matrix(2.9104224,0,0,-2.9104224,-328.28593,2003.321)"
       xml:space="preserve"
       stroke-miterlimit="10.433"
       font-style="normal"
       font-variant="normal"
       font-weight="normal"
       font-stretch="normal"
       font-size-adjust="none"
       letter-spacing="normal"
       word-spacing="normal"
       ns0:text="$\\sigma_{xz}$"
       ns0:preamble=""><path
         style="fill:#000000;stroke-width:0"
         inkscape:connector-curvature="0"
         d="m 228.59,660.94 0.01,0 0.01,0 0.02,0 0.01,0 0.02,0 0.02,0 0.02,0 0.02,0.01 0.02,0 0.02,0 0.02,0 0.02,0.01 0.02,0 0.02,0.01 0.02,0 0.02,0.01 0.02,0.01 0.02,0.01 0.02,0.01 0.01,0.01 0.02,0.02 0.02,0.01 0,0.01 0.01,0.01 0.01,0 0.01,0.01 0,0.01 0.01,0.01 0,0.01 0.01,0.01 0,0.01 0.01,0.01 0,0.01 0.01,0.02 0,0.01 0,0.01 0.01,0.01 0,0.02 0,0.01 0,0.02 0,0.01 0,0.02 c 0,0.24 -0.21,0.24 -0.39,0.24 h -2.26 c -1.51,0 -2.61,-1.64 -2.61,-2.82 0,-0.88 0.59,-1.57 1.49,-1.57 l 0.01,0.21 c -0.49,0 -0.88,0.36 -0.88,1.08 0,0.3 0.12,1.11 0.47,1.7 0.41,0.68 1.01,0.82 1.35,0.82 0.83,0 0.91,-0.66 0.91,-0.96 0,-0.47 -0.2,-1.28 -0.53,-1.79 -0.39,-0.59 -0.93,-0.85 -1.32,-0.85 h 0 l -0.01,-0.21 c 1.18,0 2.5,1.2 2.5,2.73 0,0.17 0,0.64 -0.31,1.08 z"
         id="path3054" /><path
         style="fill:#000000;stroke-width:0"
         inkscape:connector-curvature="0"
         d="m 230.86,656.48 -0.01,-0.02 -0.01,-0.03 0,-0.02 -0.01,-0.03 -0.02,-0.02 -0.01,-0.03 -0.01,-0.02 -0.01,-0.03 -0.02,-0.02 -0.01,-0.03 -0.02,-0.02 -0.01,-0.03 -0.02,-0.02 -0.02,-0.03 -0.02,-0.02 -0.02,-0.03 -0.02,-0.02 -0.02,-0.02 -0.03,-0.02 -0.02,-0.02 -0.02,-0.02 -0.03,-0.02 -0.03,-0.02 -0.02,-0.01 -0.03,-0.02 -0.03,-0.01 -0.03,-0.01 -0.03,-0.01 -0.03,0 -0.03,-0.01 -0.03,0 -0.03,0 c -0.03,0 -0.23,0 -0.38,0.09 0.28,0.09 0.3,0.34 0.3,0.39 0,0.15 -0.11,0.25 -0.27,0.25 -0.2,0 -0.4,-0.16 -0.4,-0.42 0,-0.35 0.39,-0.51 0.73,-0.51 0.32,0 0.61,0.2 0.78,0.49 0.17,-0.36 0.55,-0.49 0.83,-0.49 0.8,0 1.22,0.87 1.22,1.06 0,0.1 -0.09,0.1 -0.11,0.1 -0.09,0 -0.1,-0.04 -0.13,-0.12 -0.15,-0.48 -0.56,-0.84 -0.95,-0.84 -0.28,0 -0.43,0.18 -0.43,0.45 0,0.18 0.17,0.81 0.36,1.58 0.14,0.54 0.46,0.71 0.69,0.71 0.01,0 0.23,0 0.37,-0.09 -0.22,-0.07 -0.3,-0.26 -0.3,-0.39 0,-0.15 0.11,-0.25 0.27,-0.25 0.17,0 0.39,0.13 0.39,0.42 0,0.39 -0.44,0.51 -0.72,0.51 -0.35,0 -0.63,-0.23 -0.78,-0.5 -0.12,0.29 -0.44,0.5 -0.83,0.5 -0.78,0 -1.23,-0.86 -1.23,-1.07 0,-0.09 0.1,-0.09 0.12,-0.09 0.09,0 0.1,0.03 0.13,0.12 0.17,0.54 0.61,0.84 0.95,0.84 0.23,0 0.42,-0.12 0.42,-0.46 0,-0.13 -0.08,-0.48 -0.14,-0.72 z"
         id="path3056" /><path
         style="fill:#000000;stroke-width:0"
         inkscape:connector-curvature="0"
         d="m 234.81,656.35 0.04,0.04 0.03,0.03 0.03,0.03 0.04,0.04 0.03,0.03 0.02,0.02 0.02,0.02 0.02,0.02 0.02,0.02 0.02,0.02 0.03,0.02 0.02,0.02 0.03,0.02 0.03,0.03 0.02,0.02 0.03,0.03 0.04,0.02 0.03,0.03 0.04,0.03 0.03,0.03 0.04,0.04 0.05,0.03 0.04,0.04 0.05,0.03 0.05,0.04 0.05,0.05 0.05,0.04 c 0.15,0.12 0.67,0.53 0.87,0.73 0.43,0.42 0.69,0.77 0.69,0.85 0,0.09 -0.09,0.09 -0.12,0.09 -0.06,0 -0.08,-0.02 -0.12,-0.07 -0.21,-0.32 -0.36,-0.43 -0.52,-0.43 -0.09,0 -0.19,0.01 -0.4,0.21 -0.24,0.24 -0.39,0.29 -0.55,0.29 -0.56,0 -0.94,-0.61 -0.94,-0.82 0,-0.06 0.07,-0.08 0.12,-0.08 0.09,0 0.1,0.02 0.13,0.1 0.1,0.24 0.49,0.26 0.6,0.26 0.16,0 0.35,-0.05 0.44,-0.07 0.39,-0.08 0.44,-0.08 0.61,-0.08 -0.18,-0.19 -0.31,-0.31 -0.97,-0.84 -0.54,-0.43 -0.73,-0.61 -0.86,-0.75 -0.42,-0.41 -0.62,-0.71 -0.62,-0.77 0,-0.09 0.09,-0.09 0.12,-0.09 0.07,0 0.08,0.01 0.11,0.07 0.19,0.27 0.41,0.42 0.65,0.42 0.08,0 0.18,0 0.37,-0.18 0.22,-0.2 0.36,-0.31 0.58,-0.31 0.74,0 1.21,0.84 1.21,1.08 0,0.08 -0.08,0.09 -0.12,0.09 -0.08,0 -0.09,-0.04 -0.12,-0.11 -0.13,-0.35 -0.55,-0.52 -0.89,-0.52 -0.16,0 -0.33,0.04 -0.51,0.08 -0.32,0.07 -0.37,0.07 -0.5,0.07 -0.01,0 -0.12,0 -0.16,-0.01 z"
         id="path3058" /></g>    <g
       ns0:preamble=""
       ns0:text="$\\sigma_{yz}$"
       word-spacing="normal"
       letter-spacing="normal"
       font-size-adjust="none"
       font-stretch="normal"
       font-weight="normal"
       font-variant="normal"
       font-style="normal"
       stroke-miterlimit="10.433"
       xml:space="preserve"
       transform="matrix(2.8849206,0,0,-2.8849206,-322.57838,2014.0556)"
       id="g3134"
       style="font-style:normal;font-variant:normal;font-weight:normal;font-stretch:normal;letter-spacing:normal;word-spacing:normal;text-anchor:start;fill:none;stroke:#000000;stroke-linecap:butt;stroke-linejoin:miter;stroke-miterlimit:10.43299961;stroke-opacity:1;stroke-dasharray:none;stroke-dashoffset:0"><path
         id="path3136"
         d="m 228.59,660.94 0.01,0 0.01,0 0.02,0 0.01,0 0.02,0 0.02,0 0.02,0 0.02,0.01 0.02,0 0.02,0 0.02,0 0.02,0.01 0.02,0 0.02,0.01 0.02,0 0.02,0.01 0.02,0.01 0.02,0.01 0.02,0.01 0.01,0.01 0.02,0.02 0.02,0.01 0,0.01 0.01,0.01 0.01,0 0.01,0.01 0,0.01 0.01,0.01 0,0.01 0.01,0.01 0,0.01 0.01,0.01 0,0.01 0.01,0.02 0,0.01 0,0.01 0.01,0.01 0,0.02 0,0.01 0,0.02 0,0.01 0,0.02 c 0,0.24 -0.21,0.24 -0.39,0.24 h -2.26 c -1.51,0 -2.61,-1.64 -2.61,-2.82 0,-0.88 0.59,-1.57 1.49,-1.57 l 0.01,0.21 c -0.49,0 -0.88,0.36 -0.88,1.08 0,0.3 0.12,1.11 0.47,1.7 0.41,0.68 1.01,0.82 1.35,0.82 0.83,0 0.91,-0.66 0.91,-0.96 0,-0.47 -0.2,-1.28 -0.53,-1.79 -0.39,-0.59 -0.93,-0.85 -1.32,-0.85 h 0 l -0.01,-0.21 c 1.18,0 2.5,1.2 2.5,2.73 0,0.17 0,0.64 -0.31,1.08 z"
         inkscape:connector-curvature="0"
         style="fill:#000000;stroke-width:0" /><path
         id="path3138"
         d="m 233,658.36 0,0.01 0,0 0,0.01 0,0 0,0 0,0.01 0.01,0.01 0,0 0,0.01 0,0.01 0,0 0,0.01 0.01,0 0,0.01 0,0 0,0.01 0,0 0,0.01 0,0 0,0 0,0.01 0,0 0,0 0,0.01 0,0.01 0,0 0,0.01 0,0 0,0.01 0,0 0,0.01 c 0,0.14 -0.11,0.22 -0.23,0.22 -0.07,0 -0.2,-0.04 -0.28,-0.17 -0.02,-0.04 -0.08,-0.26 -0.11,-0.4 l -0.15,-0.58 c -0.04,-0.17 -0.26,-1.04 -0.28,-1.12 0,0 -0.31,-0.6 -0.85,-0.6 -0.48,0 -0.48,0.45 -0.48,0.57 0,0.38 0.16,0.82 0.37,1.35 0.09,0.23 0.12,0.31 0.12,0.43 0,0.33 -0.28,0.59 -0.66,0.59 -0.7,0 -1.02,-0.95 -1.02,-1.07 0,-0.09 0.1,-0.09 0.12,-0.09 0.1,0 0.11,0.04 0.13,0.11 0.17,0.58 0.47,0.85 0.75,0.85 0.12,0 0.17,-0.07 0.17,-0.24 0,-0.16 -0.06,-0.31 -0.1,-0.4 -0.33,-0.85 -0.4,-1.11 -0.4,-1.42 0,-0.11 0,-0.44 0.27,-0.66 0.22,-0.18 0.51,-0.22 0.7,-0.22 0.28,0 0.53,0.11 0.76,0.31 -0.09,-0.38 -0.17,-0.67 -0.46,-1.02 -0.19,-0.21 -0.47,-0.44 -0.84,-0.44 -0.05,0 -0.37,0 -0.52,0.23 0.38,0.04 0.38,0.37 0.38,0.38 0,0.22 -0.2,0.26 -0.28,0.26 -0.17,0 -0.4,-0.14 -0.4,-0.46 0,-0.35 0.34,-0.61 0.83,-0.61 0.7,0 1.56,0.54 1.78,1.41 z"
         inkscape:connector-curvature="0"
         style="fill:#000000;stroke-width:0" /><path
         id="path3140"
         d="m 234.59,656.35 0.03,0.04 0.03,0.03 0.04,0.03 0.03,0.04 0.04,0.03 0.02,0.02 0.01,0.02 0.02,0.02 0.03,0.02 0.02,0.02 0.02,0.02 0.03,0.02 0.02,0.02 0.03,0.03 0.03,0.02 0.03,0.03 0.03,0.02 0.03,0.03 0.04,0.03 0.04,0.03 0.04,0.04 0.04,0.03 0.04,0.04 0.05,0.03 0.05,0.04 0.05,0.05 0.06,0.04 c 0.14,0.12 0.66,0.53 0.87,0.73 0.42,0.42 0.68,0.77 0.68,0.85 0,0.09 -0.08,0.09 -0.11,0.09 -0.07,0 -0.09,-0.02 -0.12,-0.07 -0.22,-0.32 -0.36,-0.43 -0.53,-0.43 -0.08,0 -0.19,0.01 -0.4,0.21 -0.23,0.24 -0.39,0.29 -0.55,0.29 -0.56,0 -0.93,-0.61 -0.93,-0.82 0,-0.06 0.07,-0.08 0.12,-0.08 0.08,0 0.1,0.02 0.12,0.1 0.11,0.24 0.5,0.26 0.61,0.26 0.16,0 0.34,-0.05 0.44,-0.07 0.38,-0.08 0.43,-0.08 0.6,-0.08 -0.18,-0.19 -0.3,-0.31 -0.97,-0.84 -0.54,-0.43 -0.73,-0.61 -0.86,-0.75 -0.42,-0.41 -0.62,-0.71 -0.62,-0.77 0,-0.09 0.09,-0.09 0.12,-0.09 0.07,0 0.08,0.01 0.12,0.07 0.19,0.27 0.4,0.42 0.64,0.42 0.08,0 0.19,0 0.38,-0.18 0.21,-0.2 0.35,-0.31 0.57,-0.31 0.75,0 1.21,0.84 1.21,1.08 0,0.08 -0.07,0.09 -0.11,0.09 -0.09,0 -0.1,-0.04 -0.13,-0.11 -0.13,-0.35 -0.54,-0.52 -0.88,-0.52 -0.16,0 -0.34,0.04 -0.51,0.08 -0.32,0.07 -0.38,0.07 -0.5,0.07 -0.02,0 -0.12,0 -0.16,-0.01 z"
         inkscape:connector-curvature="0"
         style="fill:#000000;stroke-width:0" /></g>    <text
       xml:space="preserve"
       style="font-size:16px;font-style:normal;font-weight:normal;line-height:125%;letter-spacing:0px;word-spacing:0px;fill:#000000;fill-opacity:1;stroke:none;font-family:Sans"
       x="273.57144"
       y="58.790756"
       id="text3182"
       sodipodi:linespacing="125%"><tspan
         sodipodi:role="line"
         id="tspan3184"
         x="273.57144"
         y="58.790756">X</tspan><tspan
         sodipodi:role="line"
         x="273.57144"
         y="78.790749"
         id="tspan3186" /></text>
    <text
       xml:space="preserve"
       style="font-size:16px;font-style:normal;font-weight:normal;line-height:125%;letter-spacing:0px;word-spacing:0px;fill:#000000;fill-opacity:1;stroke:none;font-family:Sans"
       x="62.142857"
       y="261.64792"
       id="text3188"
       sodipodi:linespacing="125%"><tspan
         sodipodi:role="line"
         id="tspan3190"
         x="62.142857"
         y="261.64792">Y</tspan></text>
    <path
       style="fill:none;stroke:#000000;stroke-width:1px;stroke-linecap:butt;stroke-linejoin:miter;stroke-opacity:1;marker-start:url(#Arrow2Lstart);marker-end:url(#Arrow2Lend)"
       d="m 80,272.36218 0,-205.714283 210,0"
       id="path3192"
       inkscape:connector-curvature="0" />
  </g>
</svg>
