<?xml version="1.0" encoding="UTF-8" standalone="no"?>
<!-- Created with Inkscape (http://www.inkscape.org/) -->

<svg
   xmlns:ns0="http://www.iki.fi/pav/software/textext/"
   xmlns:dc="http://purl.org/dc/elements/1.1/"
   xmlns:cc="http://creativecommons.org/ns#"
   xmlns:rdf="http://www.w3.org/1999/02/22-rdf-syntax-ns#"
   xmlns:svg="http://www.w3.org/2000/svg"
   xmlns="http://www.w3.org/2000/svg"
   xmlns:sodipodi="http://sodipodi.sourceforge.net/DTD/sodipodi-0.dtd"
   xmlns:inkscape="http://www.inkscape.org/namespaces/inkscape"
   sodipodi:docname="local_time_stepping.svg"
   inkscape:version="0.48.4 r9939"
   version="1.1"
   id="svg2"
   height="1052.3622047"
   width="744.09448819"
   inkscape:export-filename="/home/tbent/projects/viscosaur/writing/SeismoGeomechDec17_2013/local_time_stepping.png"
   inkscape:export-xdpi="300"
   inkscape:export-ydpi="300">
  <sodipodi:namedview
     id="base"
     pagecolor="#ffffff"
     bordercolor="#666666"
     borderopacity="1.0"
     inkscape:pageopacity="0.0"
     inkscape:pageshadow="2"
     inkscape:zoom="2.8"
     inkscape:cx="160.30881"
     inkscape:cy="887.36883"
     inkscape:document-units="px"
     inkscape:current-layer="layer1"
     showgrid="false"
     inkscape:window-width="1855"
     inkscape:window-height="1056"
     inkscape:window-x="65"
     inkscape:window-y="24"
     inkscape:window-maximized="1" />
  <defs
     id="defs4">
    <marker
       style="overflow:visible;"
       id="Arrow2Mend"
       refX="0.0"
       refY="0.0"
       orient="auto"
       inkscape:stockid="Arrow2Mend">
      <path
         transform="scale(0.6) rotate(180) translate(0,0)"
         d="M 8.7185878,4.0337352 L -2.2072895,0.016013256 L 8.7185884,-4.0017078 C 6.9730900,-1.6296469 6.9831476,1.6157441 8.7185878,4.0337352 z "
         style="fill-rule:evenodd;stroke-width:0.62500000;stroke-linejoin:round;"
         id="path3974" />
    </marker>
    <marker
       style="overflow:visible"
       id="Arrow2Mstart"
       refX="0.0"
       refY="0.0"
       orient="auto"
       inkscape:stockid="Arrow2Mstart">
      <path
         transform="scale(0.6) translate(0,0)"
         d="M 8.7185878,4.0337352 L -2.2072895,0.016013256 L 8.7185884,-4.0017078 C 6.9730900,-1.6296469 6.9831476,1.6157441 8.7185878,4.0337352 z "
         style="fill-rule:evenodd;stroke-width:0.62500000;stroke-linejoin:round"
         id="path3971" />
    </marker>
  </defs>
  <metadata
     id="metadata7">
    <rdf:RDF>
      <cc:Work
         rdf:about="">
        <dc:format>image/svg+xml</dc:format>
        <dc:type
           rdf:resource="http://purl.org/dc/dcmitype/StillImage" />
        <dc:title />
      </cc:Work>
    </rdf:RDF>
  </metadata>
  <g
     id="layer1"
     inkscape:groupmode="layer"
     inkscape:label="Layer 1">
    <path
       inkscape:connector-curvature="0"
       id="path2985"
       d="m 275.26657,234.13862 -206.576197,0 0,-167.685322"
       style="fill:none;stroke:#000000;stroke-width:1px;stroke-linecap:butt;stroke-linejoin:miter;stroke-opacity:1;marker-mid:none;marker-start:url(#Arrow2Mstart);marker-end:url(#Arrow2Mend)" />
    <text
       sodipodi:linespacing="125%"
       id="text4755"
       y="233.63354"
       x="56.063465"
       style="font-size:16px;font-style:normal;font-weight:normal;line-height:125%;letter-spacing:0px;word-spacing:0px;fill:#000000;fill-opacity:1;stroke:none;font-family:Sans"
       xml:space="preserve"><tspan
         y="233.63354"
         x="56.063465"
         id="tspan4757"
         sodipodi:role="line" /></text>
    <g
       ns0:preamble=""
       ns0:text="$t_0$"
       word-spacing="normal"
       letter-spacing="normal"
       font-size-adjust="none"
       font-stretch="normal"
       font-weight="normal"
       font-variant="normal"
       font-style="normal"
       stroke-miterlimit="10.433"
       xml:space="preserve"
       transform="matrix(1.4503865,0,0,-1.4503865,-272.44917,1188.715)"
       id="content"
       style="font-style:normal;font-variant:normal;font-weight:normal;font-stretch:normal;letter-spacing:normal;word-spacing:normal;text-anchor:start;fill:none;stroke:#000000;stroke-linecap:butt;stroke-linejoin:miter;stroke-miterlimit:10.43299961;stroke-opacity:1;stroke-dasharray:none;stroke-dashoffset:0"><path
         id="path4776"
         d="m 225.48,661.21 h 0.94 c 0.2,0 0.29,0 0.29,0.2 0,0.11 -0.09,0.11 -0.27,0.11 h -0.88 c 0.36,1.41 0.41,1.61 0.41,1.66 0,0.17 -0.12,0.27 -0.29,0.27 -0.03,0 -0.31,-0.01 -0.4,-0.35 l -0.38,-1.58 h -0.94 c -0.2,0 -0.3,0 -0.3,-0.19 0,-0.12 0.08,-0.12 0.28,-0.12 h 0.88 c -0.72,-2.82 -0.76,-2.99 -0.76,-3.17 0,-0.54 0.38,-0.91 0.91,-0.91 1.02,0 1.59,1.45 1.59,1.53 0,0.1 -0.08,0.1 -0.12,0.1 -0.09,0 -0.1,-0.04 -0.15,-0.14 -0.43,-1.04 -0.96,-1.28 -1.3,-1.28 -0.2,0 -0.3,0.13 -0.3,0.46 0,0.24 0.02,0.31 0.05,0.48 z"
         inkscape:connector-curvature="0"
         style="fill:#000000;stroke-width:0" /><path
         id="path4778"
         d="m 230.62,657.96 0,0.14 0,0.14 -0.01,0.13 -0.01,0.12 -0.01,0.13 -0.01,0.12 -0.02,0.11 -0.02,0.11 -0.03,0.11 -0.03,0.11 -0.03,0.1 -0.04,0.1 -0.04,0.1 -0.05,0.09 -0.05,0.1 -0.03,0.04 -0.03,0.05 c -0.21,0.32 -0.64,0.6 -1.2,0.6 v -0.2 c 0.37,0 0.74,-0.23 0.86,-0.63 0.11,-0.37 0.12,-0.87 0.12,-1.48 0,-0.52 0,-1.03 -0.09,-1.47 -0.14,-0.63 -0.61,-0.78 -0.89,-0.78 h 0 c -0.32,0 -0.75,0.18 -0.89,0.75 -0.09,0.42 -0.09,0.98 -0.09,1.5 0,0.51 0,1.04 0.1,1.42 0.15,0.55 0.59,0.69 0.88,0.69 v 0.2 c -1.62,0 -1.62,-1.9 -1.62,-2.4 0,-0.5 0,-2.36 1.62,-2.36 1.61,0 1.61,1.86 1.61,2.36 z"
         inkscape:connector-curvature="0"
         style="fill:#000000;stroke-width:0" /></g>    <g
       id="g4840"
       transform="matrix(1.4503865,0,0,-1.4503865,-270.85194,1056.8596)"
       xml:space="preserve"
       stroke-miterlimit="10.433"
       font-style="normal"
       font-variant="normal"
       font-weight="normal"
       font-stretch="normal"
       font-size-adjust="none"
       letter-spacing="normal"
       word-spacing="normal"
       ns0:text="$t_1$"
       ns0:preamble=""
       style="font-style:normal;font-variant:normal;font-weight:normal;font-stretch:normal;letter-spacing:normal;word-spacing:normal;text-anchor:start;fill:none;stroke:#000000;stroke-linecap:butt;stroke-linejoin:miter;stroke-miterlimit:10.43299961;stroke-opacity:1;stroke-dasharray:none;stroke-dashoffset:0"><path
         style="fill:#000000;stroke-width:0"
         inkscape:connector-curvature="0"
         d="m 225.48,661.21 h 0.94 c 0.2,0 0.29,0 0.29,0.2 0,0.11 -0.09,0.11 -0.27,0.11 h -0.88 c 0.36,1.41 0.41,1.61 0.41,1.66 0,0.17 -0.12,0.27 -0.29,0.27 -0.03,0 -0.31,-0.01 -0.4,-0.35 l -0.38,-1.58 h -0.94 c -0.2,0 -0.3,0 -0.3,-0.19 0,-0.12 0.08,-0.12 0.28,-0.12 h 0.88 c -0.72,-2.82 -0.76,-2.99 -0.76,-3.17 0,-0.54 0.38,-0.91 0.91,-0.91 1.02,0 1.59,1.45 1.59,1.53 0,0.1 -0.08,0.1 -0.12,0.1 -0.09,0 -0.1,-0.04 -0.15,-0.14 -0.43,-1.04 -0.96,-1.28 -1.3,-1.28 -0.2,0 -0.3,0.13 -0.3,0.46 0,0.24 0.02,0.31 0.05,0.48 z"
         id="path4842" /><path
         style="fill:#000000;stroke-width:0"
         inkscape:connector-curvature="0"
         d="m 229.36,660.16 0,0.01 0,0.01 0,0.01 0,0.01 0,0 0,0.01 0,0.01 0,0.01 0,0 0,0.01 0,0.01 0,0 0,0.01 0,0 0,0.01 0,0 0,0.01 0,0 -0.01,0.01 0,0.01 0,0.01 -0.01,0 0,0.01 0,0.01 -0.01,0 0,0.01 -0.01,0 -0.01,0 0,0.01 -0.01,0 -0.01,0 -0.01,0 -0.01,0 0,0 -0.01,0 0,0.01 -0.01,0 0,0 -0.01,0 -0.01,0 0,0 -0.01,0 -0.01,0 -0.01,0 0,0 -0.01,0 -0.01,0 -0.01,0 -0.01,0 -0.01,0 c -0.44,-0.44 -1.08,-0.45 -1.36,-0.45 v -0.25 c 0.17,0 0.63,0 1.01,0.2 v -3.55 c 0,-0.23 0,-0.32 -0.7,-0.32 h -0.26 v -0.25 c 0.12,0.01 0.98,0.03 1.24,0.03 0.21,0 1.09,-0.02 1.24,-0.03 v 0.25 h -0.26 c -0.7,0 -0.7,0.09 -0.7,0.32 z"
         id="path4844" /></g>    <path
       inkscape:connector-curvature="0"
       id="path4866"
       d="m 64.776032,100.79848 3.914341,0"
       style="fill:none;stroke:#000000;stroke-width:1px;stroke-linecap:butt;stroke-linejoin:miter;stroke-opacity:1" />
    <path
       inkscape:connector-curvature="0"
       id="path4866-0"
       d="m 64.331775,234.12967 3.914341,0"
       style="fill:none;stroke:#000000;stroke-width:1px;stroke-linecap:butt;stroke-linejoin:miter;stroke-opacity:1" />
    <rect
       y="100.65445"
       x="131.744"
       height="133.43878"
       width="31.215651"
       id="rect4892"
       style="color:#000000;fill:none;stroke:#000000;stroke-width:0.99907339;stroke-linecap:butt;stroke-linejoin:miter;stroke-miterlimit:4;stroke-opacity:1;stroke-dasharray:none;stroke-dashoffset:0;marker:none;visibility:visible;display:inline;overflow:visible;enable-background:accumulate" />
    <rect
       y="100.70405"
       x="68.803749"
       height="133.33958"
       width="62.936245"
       id="rect4892-4"
       style="color:#000000;fill:none;stroke:#000000;stroke-width:1;stroke-linecap:butt;stroke-linejoin:miter;stroke-miterlimit:4;stroke-opacity:1;stroke-dasharray:none;stroke-dashoffset:0;marker:none;visibility:visible;display:inline;overflow:visible;enable-background:accumulate" />
    <rect
       y="167.15167"
       x="131.74359"
       height="66.938812"
       width="31.150164"
       id="rect4892-5"
       style="color:#000000;fill:none;stroke:#000000;stroke-width:0.99513453;stroke-linecap:butt;stroke-linejoin:miter;stroke-miterlimit:4;stroke-opacity:1;stroke-dasharray:none;stroke-dashoffset:0;marker:none;visibility:visible;display:inline;overflow:visible;enable-background:accumulate" />
    <rect
       y="200.65865"
       x="162.77928"
       height="33.45229"
       width="15.70229"
       id="rect4892-5-0"
       style="color:#000000;fill:none;stroke:#000000;stroke-width:1;stroke-linecap:butt;stroke-linejoin:miter;stroke-miterlimit:4;stroke-opacity:1;stroke-dasharray:none;stroke-dashoffset:0;marker:none;visibility:visible;display:inline;overflow:visible;enable-background:accumulate" />
    <rect
       y="167.10329"
       x="162.78198"
       height="33.825703"
       width="15.696896"
       id="rect4892-5-0-0"
       style="color:#000000;fill:none;stroke:#000000;stroke-width:1.00539315;stroke-linecap:butt;stroke-linejoin:miter;stroke-miterlimit:4;stroke-opacity:1;stroke-dasharray:none;stroke-dashoffset:0;marker:none;visibility:visible;display:inline;overflow:visible;enable-background:accumulate" />
    <rect
       y="134.04137"
       x="162.71434"
       height="33.203365"
       width="15.705902"
       id="rect4892-5-0-7"
       style="color:#000000;fill:none;stroke:#000000;stroke-width:0.99638706;stroke-linecap:butt;stroke-linejoin:miter;stroke-miterlimit:4;stroke-opacity:1;stroke-dasharray:none;stroke-dashoffset:0;marker:none;visibility:visible;display:inline;overflow:visible;enable-background:accumulate" />
    <rect
       y="100.67317"
       x="162.71478"
       height="33.265594"
       width="15.704998"
       id="rect4892-5-0-0-8"
       style="color:#000000;fill:none;stroke:#000000;stroke-width:0.99729162;stroke-linecap:butt;stroke-linejoin:miter;stroke-miterlimit:4;stroke-opacity:1;stroke-dasharray:none;stroke-dashoffset:0;marker:none;visibility:visible;display:inline;overflow:visible;enable-background:accumulate" />
    <text
       sodipodi:linespacing="125%"
       id="text4987"
       y="242.18361"
       x="93.035713"
       style="font-size:16px;font-style:normal;font-weight:normal;line-height:125%;letter-spacing:0px;word-spacing:0px;fill:#000000;fill-opacity:1;stroke:none;font-family:Sans"
       xml:space="preserve"><tspan
         y="242.18361"
         x="93.035713"
         id="tspan4989"
         sodipodi:role="line" /></text>
    <g
       style="font-style:normal;font-variant:normal;font-weight:normal;font-stretch:normal;letter-spacing:normal;word-spacing:normal;text-anchor:start;fill:none;stroke:#000000;stroke-linecap:butt;stroke-linejoin:miter;stroke-miterlimit:10.43299961;stroke-opacity:1;stroke-dasharray:none;stroke-dashoffset:0"
       ns0:preamble=""
       ns0:text="$x$"
       text-anchor="start"
       word-spacing="normal"
       letter-spacing="normal"
       font-size-adjust="none"
       font-stretch="normal"
       font-weight="normal"
       font-variant="normal"
       font-style="normal"
       fill-opacity="1"
       fill-rule="evenodd"
       fill="none"
       stroke-opacity="1"
       stroke-dashoffset="0"
       stroke-dasharray="none"
       stroke-miterlimit="10.433"
       stroke-linejoin="miter"
       stroke-linecap="butt"
       stroke="black"
       xml:space="preserve"
       transform="matrix(1.7492508,0,0,-1.7492508,-112.85215,1387.4301)"
       id="g5338"><path
         id="path5340"
         fill="black"
         stroke-width="0"
         d="M226.76,660.23 L226.76,660.26 L226.77,660.29 L226.78,660.32 L226.79,660.36 L226.8,660.4 L226.81,660.44 L226.82,660.48 L226.84,660.53 L226.85,660.57 L226.87,660.62 L226.89,660.67 L226.91,660.72 L226.93,660.77 L226.96,660.82 L226.98,660.87 L227.01,660.92 L227.04,660.97 L227.07,661.01 L227.1,661.06 L227.14,661.1 L227.18,661.15 L227.22,661.19 L227.26,661.23 L227.3,661.26 L227.35,661.29 L227.4,661.32 L227.42,661.33 L227.45,661.35 L227.47,661.36 L227.5,661.37 L227.53,661.38 L227.56,661.38 L227.59,661.39 L227.61,661.4 L227.65,661.4 L227.68,661.4 L227.71,661.41 L227.74,661.41 C227.79,661.41,228.03,661.41,228.24,661.28 C227.96,661.23,227.76,660.98,227.76,660.74 C227.76,660.58,227.87,660.39,228.14,660.39 C228.36,660.39,228.68,660.57,228.68,660.97 C228.68,661.49,228.09,661.63,227.75,661.63 C227.17,661.63,226.82,661.1,226.71,660.87 C226.46,661.53,225.92,661.63,225.63,661.63 C224.6,661.63,224.03,660.34,224.03,660.1 C224.03,660,224.13,660,224.15,660 C224.23,660,224.26,660.02,224.28,660.11 C224.62,661.16,225.27,661.41,225.61,661.41 C225.8,661.41,226.15,661.32,226.15,660.74 C226.15,660.43,225.98,659.77,225.61,658.38 C225.45,657.76,225.1,657.34,224.67,657.34 C224.61,657.34,224.38,657.34,224.17,657.47 C224.42,657.52,224.64,657.73,224.64,658.01 C224.64,658.28,224.42,658.36,224.27,658.36 C223.97,658.36,223.72,658.1,223.72,657.78 C223.72,657.32,224.22,657.13,224.66,657.13 C225.31,657.13,225.67,657.82,225.7,657.88 C225.82,657.51,226.18,657.13,226.77,657.13 C227.8,657.13,228.37,658.41,228.37,658.66 C228.37,658.76,228.28,658.76,228.25,658.76 C228.16,658.76,228.14,658.72,228.12,658.65 C227.79,657.58,227.11,657.34,226.79,657.34 C226.41,657.34,226.25,657.66,226.25,658 C226.25,658.22,226.31,658.44,226.42,658.87 Z " /></g>    <g
       style="font-style:normal;font-variant:normal;font-weight:normal;font-stretch:normal;letter-spacing:normal;word-spacing:normal;text-anchor:start;fill:none;stroke:#000000;stroke-linecap:butt;stroke-linejoin:miter;stroke-miterlimit:10.43299961;stroke-opacity:1;stroke-dasharray:none;stroke-dashoffset:0"
       id="g5406"
       transform="matrix(1,0,0,-1,-131.07143,901.07143)"
       xml:space="preserve"
       stroke-miterlimit="10.433"
       font-style="normal"
       font-variant="normal"
       font-weight="normal"
       font-stretch="normal"
       font-size-adjust="none"
       letter-spacing="normal"
       word-spacing="normal"
       ns0:text="$C_1$"
       ns0:preamble=""><path
         style="fill:#000000;stroke-width:0"
         inkscape:connector-curvature="0"
         d="m 230.99,664.14 0,0 0,0.01 0,0 0,0 0,0.01 0,0 0,0 0,0.01 0,0 0,0.01 -0.01,0 0,0 0,0.01 0,0 -0.01,0.01 0,0 0,0 0,0.01 -0.01,0 0,0 -0.01,0.01 0,0 -0.01,0 0,0.01 -0.01,0 0,0 0,0 -0.01,0 0,0 0,0 -0.01,0 0,0.01 0,0 -0.01,0 0,0 0,0 -0.01,0 0,0 -0.01,0 c -0.03,0 -0.04,-0.01 -0.14,-0.12 l -0.7,-0.77 c -0.09,0.14 -0.55,0.89 -1.65,0.89 -2.22,0 -4.46,-2.2 -4.46,-4.5 0,-1.64 1.17,-2.72 2.7,-2.72 0.86,0 1.62,0.39 2.14,0.85 0.93,0.81 1.1,1.72 1.1,1.75 0,0.1 -0.1,0.1 -0.12,0.1 -0.06,0 -0.11,-0.02 -0.13,-0.1 -0.09,-0.29 -0.32,-0.99 -1,-1.57 -0.69,-0.56 -1.32,-0.73 -1.83,-0.73 -0.9,0 -1.95,0.52 -1.95,2.07 0,0.57 0.2,2.18 1.2,3.34 0.61,0.7 1.54,1.2 2.43,1.2 1.01,0 1.6,-0.77 1.6,-1.92 0,-0.39 -0.03,-0.4 -0.03,-0.5 0,-0.1 0.11,-0.1 0.15,-0.1 0.13,0 0.13,0.02 0.18,0.2 z"
         id="path5408" /><path
         style="fill:#000000;stroke-width:0"
         inkscape:connector-curvature="0"
         d="m 232.89,660.16 0,0.01 0,0.01 0,0.01 0,0.01 0,0 0,0.01 0,0.01 0,0.01 -0.01,0 0,0.01 0,0.01 0,0 0,0.01 0,0 0,0.01 0,0 0,0.01 0,0 0,0.01 -0.01,0.01 0,0.01 0,0 -0.01,0.01 0,0.01 -0.01,0 0,0.01 -0.01,0 0,0 -0.01,0.01 -0.01,0 -0.01,0 -0.01,0 0,0 -0.01,0 0,0 -0.01,0.01 -0.01,0 0,0 -0.01,0 0,0 -0.01,0 -0.01,0 -0.01,0 0,0 -0.01,0 -0.01,0 -0.01,0 -0.01,0 0,0 -0.01,0 c -0.45,-0.44 -1.08,-0.45 -1.37,-0.45 v -0.25 c 0.17,0 0.63,0 1.01,0.2 v -3.55 c 0,-0.23 0,-0.32 -0.69,-0.32 h -0.27 v -0.25 c 0.13,0.01 0.98,0.03 1.24,0.03 0.22,0 1.09,-0.02 1.25,-0.03 v 0.25 h -0.27 c -0.69,0 -0.69,0.09 -0.69,0.32 z"
         id="path5410" /></g>    <g
       style="font-style:normal;font-variant:normal;font-weight:normal;font-stretch:normal;letter-spacing:normal;word-spacing:normal;text-anchor:start;fill:none;stroke:#000000;stroke-linecap:butt;stroke-linejoin:miter;stroke-miterlimit:10.43299961;stroke-opacity:1;stroke-dasharray:none;stroke-dashoffset:0"
       ns0:preamble=""
       ns0:text="$C_2$"
       text-anchor="start"
       word-spacing="normal"
       letter-spacing="normal"
       font-size-adjust="none"
       font-stretch="normal"
       font-weight="normal"
       font-variant="normal"
       font-style="normal"
       fill-opacity="1"
       fill-rule="evenodd"
       fill="none"
       stroke-opacity="1"
       stroke-dashoffset="0"
       stroke-dasharray="none"
       stroke-miterlimit="10.433"
       stroke-linejoin="miter"
       stroke-linecap="butt"
       stroke="black"
       xml:space="preserve"
       transform="matrix(1,0,0,-1,-82.818571,901.28075)"
       id="g5520"><path
         id="path5522"
         fill="black"
         stroke-width="0"
         d="M230.99,664.14 L230.99,664.14 L230.99,664.15 L230.99,664.15 L230.99,664.15 L230.99,664.16 L230.99,664.16 L230.99,664.16 L230.99,664.17 L230.99,664.17 L230.99,664.18 L230.98,664.18 L230.98,664.18 L230.98,664.19 L230.98,664.19 L230.97,664.2 L230.97,664.2 L230.97,664.2 L230.97,664.21 L230.96,664.21 L230.96,664.21 L230.95,664.22 L230.95,664.22 L230.94,664.22 L230.94,664.23 L230.93,664.23 L230.93,664.23 L230.93,664.23 L230.92,664.23 L230.92,664.23 L230.92,664.23 L230.91,664.23 L230.91,664.24 L230.91,664.24 L230.9,664.24 L230.9,664.24 L230.9,664.24 L230.89,664.24 L230.89,664.24 L230.88,664.24 C230.85,664.24,230.84,664.23,230.74,664.12 L230.04,663.35 C229.95,663.49,229.49,664.24,228.39,664.24 C226.17,664.24,223.93,662.04,223.93,659.74 C223.93,658.1,225.1,657.02,226.63,657.02 C227.49,657.02,228.25,657.41,228.77,657.87 C229.7,658.68,229.87,659.59,229.87,659.62 C229.87,659.72,229.77,659.72,229.75,659.72 C229.69,659.72,229.64,659.7,229.62,659.62 C229.53,659.33,229.3,658.63,228.62,658.05 C227.93,657.49,227.3,657.32,226.79,657.32 C225.89,657.32,224.84,657.84,224.84,659.39 C224.84,659.96,225.04,661.57,226.04,662.73 C226.65,663.43,227.58,663.93,228.47,663.93 C229.48,663.93,230.07,663.16,230.07,662.01 C230.07,661.62,230.04,661.61,230.04,661.51 C230.04,661.41,230.15,661.41,230.19,661.41 C230.32,661.41,230.32,661.43,230.37,661.61 Z " /><path
         id="path5524"
         fill="black"
         stroke-width="0"
         d="M234.07,657.01 H233.83 C233.81,656.85,233.74,656.44,233.65,656.37 C233.6,656.33,233.06,656.33,232.96,656.33 H231.68 C232.41,656.98,232.66,657.17,233.07,657.5 C233.59,657.91,234.07,658.34,234.07,659 C234.07,659.84,233.33,660.36,232.44,660.36 C231.58,660.36,230.99,659.75,230.99,659.11 C230.99,658.76,231.29,658.72,231.36,658.72 C231.53,658.72,231.73,658.84,231.73,659.09 C231.73,659.22,231.68,659.46,231.32,659.46 C231.54,659.96,232.01,660.11,232.34,660.11 C233.03,660.11,233.39,659.57,233.39,659 C233.39,658.4,232.96,657.92,232.74,657.67 L231.06,656.01 C230.99,655.95,230.99,655.94,230.99,655.74 H233.86 Z " /></g>    <g
       id="g5605"
       transform="matrix(1,0,0,-1,-58.532857,901.28075)"
       xml:space="preserve"
       stroke="black"
       stroke-linecap="butt"
       stroke-linejoin="miter"
       stroke-miterlimit="10.433"
       stroke-dasharray="none"
       stroke-dashoffset="0"
       stroke-opacity="1"
       fill="none"
       fill-rule="evenodd"
       fill-opacity="1"
       font-style="normal"
       font-variant="normal"
       font-weight="normal"
       font-stretch="normal"
       font-size-adjust="none"
       letter-spacing="normal"
       word-spacing="normal"
       text-anchor="start"
       ns0:text="$C_3$"
       ns0:preamble=""
       style="font-style:normal;font-variant:normal;font-weight:normal;font-stretch:normal;letter-spacing:normal;word-spacing:normal;text-anchor:start;fill:none;stroke:#000000;stroke-linecap:butt;stroke-linejoin:miter;stroke-miterlimit:10.43299961;stroke-opacity:1;stroke-dasharray:none;stroke-dashoffset:0"><path
         d="M230.99,664.14 L230.99,664.14 L230.99,664.15 L230.99,664.15 L230.99,664.15 L230.99,664.16 L230.99,664.16 L230.99,664.16 L230.99,664.17 L230.99,664.17 L230.99,664.18 L230.98,664.18 L230.98,664.18 L230.98,664.19 L230.98,664.19 L230.97,664.2 L230.97,664.2 L230.97,664.2 L230.97,664.21 L230.96,664.21 L230.96,664.21 L230.95,664.22 L230.95,664.22 L230.94,664.22 L230.94,664.23 L230.93,664.23 L230.93,664.23 L230.93,664.23 L230.92,664.23 L230.92,664.23 L230.92,664.23 L230.91,664.23 L230.91,664.24 L230.91,664.24 L230.9,664.24 L230.9,664.24 L230.9,664.24 L230.89,664.24 L230.89,664.24 L230.88,664.24 C230.85,664.24,230.84,664.23,230.74,664.12 L230.04,663.35 C229.95,663.49,229.49,664.24,228.39,664.24 C226.17,664.24,223.93,662.04,223.93,659.74 C223.93,658.1,225.1,657.02,226.63,657.02 C227.49,657.02,228.25,657.41,228.77,657.87 C229.7,658.68,229.87,659.59,229.87,659.62 C229.87,659.72,229.77,659.72,229.75,659.72 C229.69,659.72,229.64,659.7,229.62,659.62 C229.53,659.33,229.3,658.63,228.62,658.05 C227.93,657.49,227.3,657.32,226.79,657.32 C225.89,657.32,224.84,657.84,224.84,659.39 C224.84,659.96,225.04,661.57,226.04,662.73 C226.65,663.43,227.58,663.93,228.47,663.93 C229.48,663.93,230.07,663.16,230.07,662.01 C230.07,661.62,230.04,661.61,230.04,661.51 C230.04,661.41,230.15,661.41,230.19,661.41 C230.32,661.41,230.32,661.43,230.37,661.61 Z "
         stroke-width="0"
         fill="black"
         id="path5607" /><path
         d="M232.45,658.06 L232.5,658.06 L232.55,658.06 L232.6,658.05 L232.65,658.05 L232.7,658.04 L232.74,658.02 L232.79,658.01 L232.83,657.99 L232.87,657.97 L232.91,657.95 L232.95,657.93 L232.99,657.91 L233.02,657.88 L233.06,657.85 L233.09,657.82 L233.12,657.78 L233.16,657.75 L233.18,657.71 L233.21,657.67 L233.24,657.62 L233.26,657.58 L233.28,657.53 L233.3,657.48 L233.32,657.43 L233.33,657.38 L233.35,657.32 L233.36,657.27 L233.37,657.21 L233.38,657.14 L233.38,657.08 L233.39,657.01 L233.39,656.94 C233.39,656.08,232.89,655.82,232.48,655.82 C232.2,655.82,231.59,655.9,231.3,656.31 C231.63,656.33,231.7,656.55,231.7,656.7 C231.7,656.92,231.54,657.08,231.32,657.08 C231.12,657.08,230.93,656.97,230.93,656.68 C230.93,656.03,231.65,655.6,232.5,655.6 C233.46,655.6,234.13,656.25,234.13,656.94 C234.13,657.49,233.69,658.03,232.92,658.19 C233.65,658.45,233.92,658.97,233.92,659.4 C233.92,659.95,233.28,660.36,232.51,660.36 C231.74,660.36,231.15,659.98,231.15,659.43 C231.15,659.19,231.3,659.06,231.51,659.06 C231.72,659.06,231.86,659.22,231.86,659.41 C231.86,659.61,231.72,659.76,231.51,659.77 C231.75,660.08,232.23,660.16,232.49,660.16 C232.8,660.16,233.24,660,233.24,659.4 C233.24,659.11,233.14,658.79,232.96,658.57 C232.73,658.31,232.54,658.29,232.19,658.27 C232.02,658.26,232,658.26,231.97,658.25 C231.95,658.25,231.9,658.24,231.9,658.16 C231.9,658.06,231.96,658.06,232.08,658.06 Z "
         stroke-width="0"
         fill="black"
         id="path5609" /></g>    <rect
       y="100.70406"
       x="178.80374"
       height="133.33958"
       width="62.936245"
       id="rect4892-4-0"
       style="color:#000000;fill:none;stroke:#000000;stroke-width:1;stroke-linecap:butt;stroke-linejoin:miter;stroke-miterlimit:4;stroke-opacity:1;stroke-dasharray:none;stroke-dashoffset:0;marker:none;visibility:visible;display:inline;overflow:visible;enable-background:accumulate" />
    <g
       id="g5826"
       transform="matrix(1,0,0,-1,-20.458571,900.49647)"
       xml:space="preserve"
       stroke="black"
       stroke-linecap="butt"
       stroke-linejoin="miter"
       stroke-miterlimit="10.433"
       stroke-dasharray="none"
       stroke-dashoffset="0"
       stroke-opacity="1"
       fill="none"
       fill-rule="evenodd"
       fill-opacity="1"
       font-style="normal"
       font-variant="normal"
       font-weight="normal"
       font-stretch="normal"
       font-size-adjust="none"
       letter-spacing="normal"
       word-spacing="normal"
       text-anchor="start"
       ns0:text="$C_4$"
       ns0:preamble=""
       style="font-style:normal;font-variant:normal;font-weight:normal;font-stretch:normal;letter-spacing:normal;word-spacing:normal;text-anchor:start;fill:none;stroke:#000000;stroke-linecap:butt;stroke-linejoin:miter;stroke-miterlimit:10.43299961;stroke-opacity:1;stroke-dasharray:none;stroke-dashoffset:0"><path
         d="M230.99,664.14 L230.99,664.14 L230.99,664.15 L230.99,664.15 L230.99,664.15 L230.99,664.16 L230.99,664.16 L230.99,664.16 L230.99,664.17 L230.99,664.17 L230.99,664.18 L230.98,664.18 L230.98,664.18 L230.98,664.19 L230.98,664.19 L230.97,664.2 L230.97,664.2 L230.97,664.2 L230.97,664.21 L230.96,664.21 L230.96,664.21 L230.95,664.22 L230.95,664.22 L230.94,664.22 L230.94,664.23 L230.93,664.23 L230.93,664.23 L230.93,664.23 L230.92,664.23 L230.92,664.23 L230.92,664.23 L230.91,664.23 L230.91,664.24 L230.91,664.24 L230.9,664.24 L230.9,664.24 L230.9,664.24 L230.89,664.24 L230.89,664.24 L230.88,664.24 C230.85,664.24,230.84,664.23,230.74,664.12 L230.04,663.35 C229.95,663.49,229.49,664.24,228.39,664.24 C226.17,664.24,223.93,662.04,223.93,659.74 C223.93,658.1,225.1,657.02,226.63,657.02 C227.49,657.02,228.25,657.41,228.77,657.87 C229.7,658.68,229.87,659.59,229.87,659.62 C229.87,659.72,229.77,659.72,229.75,659.72 C229.69,659.72,229.64,659.7,229.62,659.62 C229.53,659.33,229.3,658.63,228.62,658.05 C227.93,657.49,227.3,657.32,226.79,657.32 C225.89,657.32,224.84,657.84,224.84,659.39 C224.84,659.96,225.04,661.57,226.04,662.73 C226.65,663.43,227.58,663.93,228.47,663.93 C229.48,663.93,230.07,663.16,230.07,662.01 C230.07,661.62,230.04,661.61,230.04,661.51 C230.04,661.41,230.15,661.41,230.19,661.41 C230.32,661.41,230.32,661.43,230.37,661.61 Z "
         stroke-width="0"
         fill="black"
         id="path5828" /><path
         d="M234.24,656.88 V657.13 H233.46 V660.23 C233.46,660.38,233.46,660.43,233.31,660.43 C233.23,660.43,233.2,660.43,233.13,660.33 L230.82,657.13 V656.88 H232.87 L232.92,657.13 H231.08 L232.92,659.68 V657.13 L232.87,656.88 V656.31 C232.87,656.08,232.87,655.99,232.31,655.99 H232.12 V655.74 C232.47,655.76,232.91,655.77,233.16,655.77 C233.42,655.77,233.87,655.76,234.22,655.74 V655.99 H234.03 C233.46,655.99,233.46,656.08,233.46,656.31 V656.88 Z "
         stroke-width="0"
         fill="black"
         id="path5830" /></g>    <g
       style="font-style:normal;font-variant:normal;font-weight:normal;font-stretch:normal;letter-spacing:normal;word-spacing:normal;text-anchor:start;fill:none;stroke:#000000;stroke-linecap:butt;stroke-linejoin:miter;stroke-miterlimit:10.43299961;stroke-opacity:1;stroke-dasharray:none;stroke-dashoffset:0"
       ns0:preamble=""
       ns0:text="2"
       text-anchor="start"
       word-spacing="normal"
       letter-spacing="normal"
       font-size-adjust="none"
       font-stretch="normal"
       font-weight="normal"
       font-variant="normal"
       font-style="normal"
       fill-opacity="1"
       fill-rule="evenodd"
       fill="none"
       stroke-opacity="1"
       stroke-dashoffset="0"
       stroke-dasharray="none"
       stroke-miterlimit="10.433"
       stroke-linejoin="miter"
       stroke-linecap="butt"
       stroke="black"
       xml:space="preserve"
       transform="matrix(1,0,0,-1,-55.602857,845.04504)"
       id="g6992"><path
         id="path6994"
         fill="black"
         stroke-width="0"
         d="M224.7,658 L225.75,659.02 C227.3,660.39,227.9,660.93,227.9,661.92 C227.9,663.06,227,663.85,225.79,663.85 C224.67,663.85,223.93,662.94,223.93,662.05 C223.93,661.5,224.43,661.5,224.46,661.5 C224.63,661.5,224.97,661.62,224.97,662.02 C224.97,662.28,224.79,662.54,224.45,662.54 C224.37,662.54,224.35,662.54,224.32,662.53 C224.55,663.17,225.08,663.54,225.66,663.54 C226.57,663.54,226.99,662.74,226.99,661.92 C226.99,661.13,226.5,660.34,225.95,659.73 L224.04,657.6 C223.93,657.49,223.93,657.47,223.93,657.23 H227.62 L227.9,658.96 H227.65 C227.6,658.66,227.53,658.23,227.43,658.08 C227.36,658,226.71,658,226.49,658 Z " /></g>    <g
       id="g7132"
       transform="matrix(1,0,0,-1,-55.245714,809.33075)"
       xml:space="preserve"
       stroke="black"
       stroke-linecap="butt"
       stroke-linejoin="miter"
       stroke-miterlimit="10.433"
       stroke-dasharray="none"
       stroke-dashoffset="0"
       stroke-opacity="1"
       fill="none"
       fill-rule="evenodd"
       fill-opacity="1"
       font-style="normal"
       font-variant="normal"
       font-weight="normal"
       font-stretch="normal"
       font-size-adjust="none"
       letter-spacing="normal"
       word-spacing="normal"
       text-anchor="start"
       ns0:text="4"
       ns0:preamble=""
       style="font-style:normal;font-variant:normal;font-weight:normal;font-stretch:normal;letter-spacing:normal;word-spacing:normal;text-anchor:start;fill:none;stroke:#000000;stroke-linecap:butt;stroke-linejoin:miter;stroke-miterlimit:10.43299961;stroke-opacity:1;stroke-dasharray:none;stroke-dashoffset:0"><path
         d="M226.36,658.87 V658.01 C226.36,657.65,226.34,657.54,225.6,657.54 H225.39 V657.23 C225.8,657.27,226.32,657.27,226.74,657.27 C227.15,657.27,227.68,657.27,228.09,657.23 V657.54 H227.88 C227.14,657.54,227.12,657.65,227.12,658.01 V658.87 H228.12 V659.18 H227.12 V663.7 C227.12,663.9,227.12,663.96,226.96,663.96 C226.87,663.96,226.85,663.96,226.76,663.84 L223.71,659.18 H223.99 L226.42,662.89 V659.18 H223.99 H223.71 V658.87 Z "
         stroke-width="0"
         fill="black"
         id="path7134" /></g>    <g
       style="font-style:normal;font-variant:normal;font-weight:normal;font-stretch:normal;letter-spacing:normal;word-spacing:normal;text-anchor:start;fill:none;stroke:#000000;stroke-linecap:butt;stroke-linejoin:miter;stroke-miterlimit:10.43299961;stroke-opacity:1;stroke-dasharray:none;stroke-dashoffset:0"
       ns0:preamble=""
       ns0:text="5"
       text-anchor="start"
       word-spacing="normal"
       letter-spacing="normal"
       font-size-adjust="none"
       font-stretch="normal"
       font-weight="normal"
       font-variant="normal"
       font-style="normal"
       fill-opacity="1"
       fill-rule="evenodd"
       fill="none"
       stroke-opacity="1"
       stroke-dashoffset="0"
       stroke-dasharray="none"
       stroke-miterlimit="10.433"
       stroke-linejoin="miter"
       stroke-linecap="butt"
       stroke="black"
       xml:space="preserve"
       transform="matrix(1,0,0,-1,-55.602857,777.90218)"
       id="g7272"><path
         id="path7274"
         fill="black"
         stroke-width="0"
         d="M227.9,659.23 L227.9,659.34 L227.89,659.45 L227.88,659.56 L227.86,659.66 L227.84,659.77 L227.82,659.87 L227.79,659.97 L227.75,660.07 L227.72,660.17 L227.68,660.26 L227.63,660.35 L227.58,660.44 L227.53,660.53 L227.48,660.61 L227.42,660.69 L227.36,660.76 L227.29,660.84 L227.22,660.9 L227.15,660.97 L227.08,661.03 L227,661.09 L226.92,661.14 L226.84,661.19 L226.76,661.23 L226.67,661.27 L226.58,661.31 L226.49,661.34 L226.4,661.36 L226.3,661.38 L226.21,661.4 L226.11,661.4 L226.01,661.41 C225.53,661.41,225.1,661.25,224.74,660.9 V662.84 C224.94,662.78,225.27,662.71,225.59,662.71 C226.82,662.71,227.51,663.61,227.51,663.74 C227.51,663.8,227.48,663.85,227.41,663.85 C227.4,663.85,227.38,663.85,227.33,663.82 C227.13,663.73,226.65,663.53,225.98,663.53 C225.58,663.53,225.12,663.6,224.66,663.81 C224.58,663.84,224.56,663.84,224.54,663.84 C224.44,663.84,224.44,663.76,224.44,663.6 V660.66 C224.44,660.48,224.44,660.4,224.58,660.4 C224.65,660.4,224.67,660.43,224.71,660.49 C224.82,660.65,225.18,661.19,225.99,661.19 C226.51,661.19,226.76,660.73,226.84,660.55 C226.99,660.18,227.01,659.8,227.01,659.3 C227.01,658.95,227.01,658.36,226.77,657.94 C226.54,657.55,226.17,657.29,225.71,657.29 C224.98,657.29,224.42,657.82,224.25,658.41 C224.28,658.4,224.31,658.39,224.42,658.39 C224.74,658.39,224.91,658.64,224.91,658.87 C224.91,659.11,224.74,659.36,224.42,659.36 C224.28,659.36,223.93,659.29,223.93,658.83 C223.93,657.98,224.62,657.02,225.73,657.02 C226.88,657.02,227.9,657.97,227.9,659.23 Z " /></g>    <g
       id="g7412"
       transform="matrix(1,0,0,-1,-80.245714,796.47361)"
       xml:space="preserve"
       stroke="black"
       stroke-linecap="butt"
       stroke-linejoin="miter"
       stroke-miterlimit="10.433"
       stroke-dasharray="none"
       stroke-dashoffset="0"
       stroke-opacity="1"
       fill="none"
       fill-rule="evenodd"
       fill-opacity="1"
       font-style="normal"
       font-variant="normal"
       font-weight="normal"
       font-stretch="normal"
       font-size-adjust="none"
       letter-spacing="normal"
       word-spacing="normal"
       text-anchor="start"
       ns0:text="6"
       ns0:preamble=""
       style="font-style:normal;font-variant:normal;font-weight:normal;font-stretch:normal;letter-spacing:normal;word-spacing:normal;text-anchor:start;fill:none;stroke:#000000;stroke-linecap:butt;stroke-linejoin:miter;stroke-miterlimit:10.43299961;stroke-opacity:1;stroke-dasharray:none;stroke-dashoffset:0"><path
         d="M224.74,660.49 V660.73 C224.74,663.24,225.98,663.6,226.49,663.6 C226.73,663.6,227.14,663.54,227.36,663.21 C227.21,663.21,226.82,663.21,226.82,662.76 C226.82,662.45,227.05,662.3,227.27,662.3 C227.43,662.3,227.73,662.39,227.73,662.78 C227.73,663.37,227.29,663.85,226.47,663.85 C225.19,663.85,223.85,662.57,223.85,660.37 C223.85,657.72,225,657.02,225.93,657.02 C227.03,657.02,227.98,657.95,227.98,659.26 C227.98,660.52,227.09,661.48,225.99,661.48 L225.98,661.25 C226.14,661.25,226.6,661.25,226.9,660.63 C227.08,660.27,227.08,659.76,227.08,659.27 C227.08,658.79,227.08,658.3,226.91,657.94 C226.62,657.34,226.16,657.29,225.93,657.29 H225.93 C225.3,657.29,225,657.89,224.94,658.04 C224.76,658.51,224.76,659.3,224.76,659.48 C224.76,660.26,225.08,661.25,225.98,661.25 L225.99,661.48 C225.31,661.48,224.94,660.97,224.74,660.49 Z "
         stroke-width="0"
         fill="black"
         id="path7414" /></g>    <path
       style="color:#000000;fill:#ff6600;fill-opacity:0.32156863;fill-rule:nonzero;stroke:#000000;stroke-width:0.35714287;stroke-linecap:butt;stroke-linejoin:miter;stroke-miterlimit:4;stroke-opacity:1;stroke-dasharray:none;stroke-dashoffset:0;marker:none;visibility:visible;display:inline;overflow:visible;enable-background:accumulate"
       d="m 69.036489,101.3505 c 0,44.04761 0,88.09523 0,132.14285 5.138652,0.46871 10.637842,0.067 15.915178,0.2009 15.357143,0 30.714283,0 46.071433,0 0.4687,-5.13866 0.067,-10.63785 0.20089,-15.91518 0,-38.80953 0,-77.61905 0,-116.42857 -5.13866,-0.46871 -10.63784,-0.067 -15.91518,-0.2009 -15.357143,0 -30.714286,0 -46.071429,0 l -0.200892,0.2009 z"
       id="path3064"
       inkscape:connector-curvature="0" />
    <path
       style="color:#000000;fill:#ff6600;fill-opacity:0.32156863;fill-rule:nonzero;stroke:#000000;stroke-width:0.35714287;stroke-linecap:butt;stroke-linejoin:miter;stroke-miterlimit:4;stroke-opacity:1;stroke-dasharray:none;stroke-dashoffset:0;marker:none;visibility:visible;display:inline;overflow:visible;enable-background:accumulate"
       d="m 132.25077,167.77907 c 0,21.90476 0,43.80952 0,65.71428 5.07933,0.46824 10.51853,0.0677 15.73661,0.2009 4.70238,0 9.40476,0 14.10714,0 0.46871,-5.13866 0.067,-10.63785 0.2009,-15.91518 0,-16.66667 0,-33.33334 0,-50 -5.07933,-0.46824 -10.51853,-0.0676 -15.73661,-0.2009 -4.70238,0 -9.40476,0 -14.10714,0 l -0.2009,0.2009 z"
       id="path3066"
       inkscape:connector-curvature="0" />
    <path
       style="color:#000000;fill:#ff6600;fill-opacity:0.32156863;fill-rule:nonzero;stroke:#000000;stroke-width:0.35714287;stroke-linecap:butt;stroke-linejoin:miter;stroke-miterlimit:4;stroke-opacity:1;stroke-dasharray:none;stroke-dashoffset:0;marker:none;visibility:visible;display:inline;overflow:visible;enable-background:accumulate"
       d="m 163.3222,201.3505 c 0,10.71428 0,21.42857 0,32.14285 4.66247,0.4687 9.68546,0.067 14.48661,0.2009 0.46871,-5.13866 0.067,-10.63785 0.20089,-15.91518 0,-5.47619 0,-10.95238 0,-16.42857 -4.66246,-0.4687 -9.68546,-0.067 -14.4866,-0.2009 l -0.2009,0.2009 z"
       id="path3068"
       inkscape:connector-curvature="0" />
    <path
       style="color:#000000;fill:#ff6600;fill-opacity:0.32156863;fill-rule:nonzero;stroke:#000000;stroke-width:0.35714287;stroke-linecap:butt;stroke-linejoin:miter;stroke-miterlimit:4;stroke-opacity:1;stroke-dasharray:none;stroke-dashoffset:0;marker:none;visibility:visible;display:inline;overflow:visible;enable-background:accumulate"
       d="m 179.03649,101.3505 c 0,44.04761 0,88.09523 0,132.14285 5.13865,0.46871 10.63784,0.067 15.91518,0.2009 15.47619,0 30.95238,0 46.42857,0 0.46871,-5.13866 0.067,-10.63785 0.20089,-15.91518 0,-38.80953 0,-77.61905 0,-116.42857 -5.13865,-0.46871 -10.63784,-0.067 -15.91518,-0.2009 -15.47619,0 -30.95238,0 -46.42857,0 l -0.20089,0.2009 z"
       id="path3070"
       inkscape:connector-curvature="0" />
  </g>
  <g
     inkscape:groupmode="layer"
     id="layer2"
     inkscape:label="text"
     style="display:inline">
    <g
       ns0:preamble=""
       ns0:text="a"
       word-spacing="normal"
       letter-spacing="normal"
       font-size-adjust="none"
       font-stretch="normal"
       font-weight="normal"
       font-variant="normal"
       font-style="normal"
       stroke-miterlimit="10.433"
       xml:space="preserve"
       transform="matrix(1,0,0,-1,-67.857143,860.35714)"
       id="g5693"
       style="font-style:normal;font-variant:normal;font-weight:normal;font-stretch:normal;letter-spacing:normal;word-spacing:normal;text-anchor:start;fill:none;stroke:#000000;stroke-linecap:butt;stroke-linejoin:miter;stroke-miterlimit:10.43299961;stroke-opacity:1;stroke-dasharray:none;stroke-dashoffset:0"><path
         id="path5695"
         d="m 226.74,657.99 0.01,-0.04 0.01,-0.03 0,-0.04 0.01,-0.04 0.01,-0.04 0.01,-0.03 0.01,-0.04 0.02,-0.03 0.01,-0.04 0.02,-0.03 0.02,-0.04 0.01,-0.03 0.03,-0.03 0.02,-0.04 0.02,-0.03 0.02,-0.03 0.03,-0.02 0.02,-0.03 0.03,-0.03 0.03,-0.02 0.03,-0.02 0.03,-0.03 0.03,-0.02 0.04,-0.01 0.03,-0.02 0.04,-0.01 0.04,-0.02 0.04,-0.01 0.03,0 0.05,-0.01 0.04,0 0.04,-0.01 c 0.21,0 0.82,0.14 0.82,0.95 v 0.55 h -0.25 v -0.55 c 0,-0.58 -0.25,-0.64 -0.36,-0.64 -0.33,0 -0.37,0.45 -0.37,0.5 v 1.99 c 0,0.41 0,0.8 -0.36,1.17 -0.38,0.39 -0.88,0.54 -1.36,0.54 -0.82,0 -1.5,-0.46 -1.5,-1.12 0,-0.29 0.2,-0.46 0.46,-0.46 0.28,0 0.45,0.19 0.45,0.45 0,0.12 -0.05,0.45 -0.5,0.46 0.27,0.35 0.75,0.46 1.07,0.46 0.49,0 1.06,-0.39 1.06,-1.27 v -0.37 -0.21 -0.99 c 0,-0.95 -0.72,-1.29 -1.17,-1.29 -0.49,0 -0.89,0.35 -0.89,0.85 0,0.54 0.41,1.37 2.06,1.43 h 0 v 0.21 c -0.51,-0.03 -1.21,-0.06 -1.83,-0.36 -0.75,-0.34 -1,-0.85 -1,-1.29 0,-0.81 0.97,-1.05 1.59,-1.05 0.66,0 1.12,0.39 1.3,0.86 z"
         inkscape:connector-curvature="0"
         style="fill:#000000;stroke-width:0" /></g>    <g
       style="font-style:normal;font-variant:normal;font-weight:normal;font-stretch:normal;letter-spacing:normal;word-spacing:normal;text-anchor:start;fill:none;stroke:#000000;stroke-linecap:butt;stroke-linejoin:miter;stroke-miterlimit:10.43299961;stroke-opacity:1;stroke-dasharray:none;stroke-dashoffset:0"
       ns0:preamble=""
       ns0:text="b"
       word-spacing="normal"
       letter-spacing="normal"
       font-size-adjust="none"
       font-stretch="normal"
       font-weight="normal"
       font-variant="normal"
       font-style="normal"
       stroke-miterlimit="10.433"
       xml:space="preserve"
       transform="matrix(1,0,0,-1,-43.952142,860.69575)"
       id="g5969"><path
         id="path5971"
         d="m 225.14,660.98 v 3.15 l -1.43,-0.11 v -0.31 c 0.7,0 0.78,-0.07 0.78,-0.55 v -5.93 h 0.25 c 0,0.01 0.08,0.15 0.35,0.62 0.15,-0.23 0.57,-0.72 1.31,-0.72 l -0.04,0.21 c -0.45,0 -0.81,0.24 -1.05,0.61 -0.14,0.21 -0.14,0.24 -0.14,0.42 h 0 v 2.04 c 0,0.19 0,0.2 0.11,0.36 0.39,0.56 0.94,0.64 1.18,0.64 0.44,0 0.8,-0.26 1.04,-0.64 0.26,-0.41 0.29,-0.97 0.29,-1.38 0,-0.37 -0.02,-0.96 -0.31,-1.41 -0.21,-0.31 -0.59,-0.64 -1.12,-0.64 l 0.04,-0.21 c 1.18,0 2.22,0.97 2.22,2.25 0,1.26 -0.98,2.25 -2.11,2.25 -0.78,0 -1.21,-0.47 -1.37,-0.65 z"
         inkscape:connector-curvature="0"
         style="fill:#000000;stroke-width:0" /></g>    <g
       style="font-style:normal;font-variant:normal;font-weight:normal;font-stretch:normal;letter-spacing:normal;word-spacing:normal;text-anchor:start;fill:none;stroke:#000000;stroke-linecap:butt;stroke-linejoin:miter;stroke-miterlimit:10.43299961;stroke-opacity:1;stroke-dasharray:none;stroke-dashoffset:0"
       id="g6511"
       transform="matrix(1,0,0,-1,-56.071428,878.57143)"
       xml:space="preserve"
       stroke-miterlimit="10.433"
       font-style="normal"
       font-variant="normal"
       font-weight="normal"
       font-stretch="normal"
       font-size-adjust="none"
       letter-spacing="normal"
       word-spacing="normal"
       ns0:text="1"
       ns0:preamble=""><path
         style="fill:#000000;stroke-width:0"
         inkscape:connector-curvature="0"
         d="m 226.36,663.59 0,0.01 0,0.01 0,0.02 0,0.01 0,0 0,0.01 0,0.01 0,0.01 0,0.01 0,0.01 0,0.01 0,0.01 0,0 -0.01,0.01 0,0.01 0,0 0,0.01 0,0.01 0,0.01 0,0.01 -0.01,0.01 0,0.01 0,0.01 -0.01,0 0,0.01 -0.01,0.01 0,0 -0.01,0.01 -0.01,0 -0.01,0.01 0,0 -0.01,0 0,0 -0.01,0 0,0 -0.01,0 -0.01,0.01 0,0 -0.01,0 -0.01,0 0,0 -0.01,0 -0.01,0 -0.01,0 0,0 -0.01,0 -0.01,0 -0.01,0 -0.01,0 -0.01,0 -0.01,0 -0.01,0 c -0.62,-0.63 -1.49,-0.63 -1.81,-0.63 v -0.31 c 0.2,0 0.78,0 1.3,0.25 v -5.14 c 0,-0.36 -0.03,-0.48 -0.92,-0.48 h -0.32 v -0.31 c 0.35,0.04 1.21,0.04 1.61,0.04 0.4,0 1.26,0 1.61,-0.04 v 0.31 h -0.32 c -0.89,0 -0.92,0.11 -0.92,0.48 z"
         id="path6513" /></g>    <g
       style="font-style:normal;font-variant:normal;font-weight:normal;font-stretch:normal;letter-spacing:normal;word-spacing:normal;text-anchor:start;fill:none;stroke:#000000;stroke-linecap:butt;stroke-linejoin:miter;stroke-miterlimit:10.43299961;stroke-opacity:1;stroke-dasharray:none;stroke-dashoffset:0"
       ns0:preamble=""
       ns0:text="7\n"
       word-spacing="normal"
       letter-spacing="normal"
       font-size-adjust="none"
       font-stretch="normal"
       font-weight="normal"
       font-variant="normal"
       font-style="normal"
       stroke-miterlimit="10.433"
       xml:space="preserve"
       transform="matrix(1,0,0,-1,-127.38857,823.61647)"
       id="g6712"><path
         id="path6714"
         d="m 228.17,663.28 0.01,0.02 0,0.01 0.01,0.01 0.01,0.01 0,0 0.01,0.01 0,0.01 0.01,0.01 0,0.01 0.01,0.01 0,0 0.01,0.01 0,0.01 0,0.01 0,0.01 0.01,0.01 0,0 0,0.01 0,0.01 0,0.01 0,0.01 0,0.01 0.01,0.01 0,0.02 0,0.01 0,0.01 0,0.02 0,0.01 0,0.02 0,0.02 0,0.01 0,0.01 0,0.01 h -2.42 c -1.21,0 -1.23,0.13 -1.27,0.32 h -0.25 l -0.33,-2.05 h 0.25 c 0.03,0.16 0.12,0.79 0.25,0.91 0.07,0.06 0.84,0.06 0.97,0.06 h 2.06 c -0.11,-0.16 -0.89,-1.24 -1.11,-1.57 -0.9,-1.34 -1.23,-2.72 -1.23,-3.74 0,-0.1 0,-0.54 0.46,-0.54 0.46,0 0.46,0.44 0.46,0.54 v 0.51 c 0,0.55 0.03,1.09 0.11,1.63 0.04,0.23 0.18,1.08 0.61,1.7 z"
         inkscape:connector-curvature="0"
         style="fill:#000000;stroke-width:0" /></g>    <g
       id="g6852"
       transform="matrix(1,0,0,-1,-80.245714,862.90218)"
       xml:space="preserve"
       stroke-miterlimit="10.433"
       font-style="normal"
       font-variant="normal"
       font-weight="normal"
       font-stretch="normal"
       font-size-adjust="none"
       letter-spacing="normal"
       word-spacing="normal"
       ns0:text="3"
       ns0:preamble=""
       style="font-style:normal;font-variant:normal;font-weight:normal;font-stretch:normal;letter-spacing:normal;word-spacing:normal;text-anchor:start;fill:none;stroke:#000000;stroke-linecap:butt;stroke-linejoin:miter;stroke-miterlimit:10.43299961;stroke-opacity:1;stroke-dasharray:none;stroke-dashoffset:0"><path
         d="m 226.32,660.73 0.07,0.03 0.08,0.03 0.07,0.03 0.07,0.03 0.07,0.04 0.07,0.04 0.06,0.04 0.07,0.04 0.06,0.04 0.06,0.05 0.06,0.05 0.06,0.05 0.05,0.05 0.05,0.05 0.05,0.06 0.05,0.05 0.04,0.06 0.05,0.06 0.04,0.06 0.03,0.06 0.04,0.07 0.03,0.06 0.03,0.07 0.03,0.06 0.02,0.07 0.02,0.07 0.02,0.07 0.01,0.07 0.02,0.07 0,0.07 0.01,0.08 0,0.07 c 0,0.81 -0.87,1.37 -1.83,1.37 -1,0 -1.76,-0.59 -1.76,-1.35 0,-0.33 0.22,-0.52 0.51,-0.52 0.3,0 0.5,0.22 0.5,0.51 0,0.5 -0.46,0.5 -0.61,0.5 0.3,0.48 0.96,0.61 1.32,0.61 0.41,0 0.95,-0.22 0.95,-1.11 0,-0.12 -0.02,-0.7 -0.27,-1.13 -0.3,-0.48 -0.64,-0.51 -0.89,-0.52 -0.08,-0.01 -0.32,-0.03 -0.39,-0.03 -0.08,-0.01 -0.15,-0.02 -0.15,-0.12 0,-0.11 0.07,-0.11 0.24,-0.11 h 0.44 c 0.82,0 1.18,-0.67 1.18,-1.65 0,-1.35 -0.68,-1.64 -1.12,-1.64 -0.43,0 -1.17,0.17 -1.52,0.76 0.35,-0.05 0.65,0.17 0.65,0.55 0,0.35 -0.26,0.55 -0.55,0.55 -0.24,0 -0.56,-0.14 -0.56,-0.57 0,-0.91 0.92,-1.56 2.01,-1.56 1.21,0 2.12,0.9 2.12,1.91 0,0.82 -0.63,1.59 -1.66,1.8 z"
         id="path6854"
         inkscape:connector-curvature="0"
         style="fill:#000000;stroke-width:0" /></g>    <g
       style="font-style:normal;font-variant:normal;font-weight:normal;font-stretch:normal;letter-spacing:normal;word-spacing:normal;text-anchor:start;fill:none;stroke:#000000;stroke-linecap:butt;stroke-linejoin:miter;stroke-miterlimit:10.43299961;stroke-opacity:1;stroke-dasharray:none;stroke-dashoffset:0"
       ns0:preamble=""
       ns0:text="d"
       word-spacing="normal"
       letter-spacing="normal"
       font-size-adjust="none"
       font-stretch="normal"
       font-weight="normal"
       font-variant="normal"
       font-style="normal"
       stroke-miterlimit="10.433"
       xml:space="preserve"
       transform="matrix(1,0,0,-1,-43.237857,827.12432)"
       id="g6401"><path
         id="path6403"
         d="m 227.21,657.78 v -0.65 l 1.47,0.1 v 0.31 c -0.7,0 -0.78,0.07 -0.78,0.56 v 6.03 l -1.43,-0.11 v -0.31 c 0.69,0 0.77,-0.07 0.77,-0.55 v -2.15 c -0.29,0.36 -0.71,0.62 -1.25,0.62 l 0.04,-0.22 c 0.35,0 0.76,-0.15 1.07,-0.6 0.11,-0.17 0.11,-0.19 0.11,-0.37 h 0 v -2.03 c 0,-0.18 0,-0.2 -0.11,-0.37 -0.3,-0.48 -0.74,-0.7 -1.17,-0.7 -0.45,0 -0.81,0.26 -1.05,0.64 -0.25,0.41 -0.28,0.97 -0.28,1.38 0,0.37 0.02,0.96 0.3,1.41 0.21,0.31 0.59,0.64 1.13,0.64 l -0.04,0.22 c -1.17,0 -2.22,-0.98 -2.22,-2.26 0,-1.26 0.97,-2.24 2.11,-2.24 0.64,0 1.08,0.33 1.33,0.65 z"
         inkscape:connector-curvature="0"
         style="fill:#000000;stroke-width:0" /></g>    <g
       style="font-style:normal;font-variant:normal;font-weight:normal;font-stretch:normal;letter-spacing:normal;word-spacing:normal;text-anchor:start;fill:none;stroke:#000000;stroke-linecap:butt;stroke-linejoin:miter;stroke-miterlimit:10.43299961;stroke-opacity:1;stroke-dasharray:none;stroke-dashoffset:0"
       ns0:preamble=""
       ns0:text="8"
       word-spacing="normal"
       letter-spacing="normal"
       font-size-adjust="none"
       font-stretch="normal"
       font-weight="normal"
       font-variant="normal"
       font-style="normal"
       stroke-miterlimit="10.433"
       xml:space="preserve"
       transform="matrix(1,0,0,-1,-12.745714,826.11648)"
       id="g7552"><path
         id="path7554"
         d="m 226.51,660.83 0.06,0.04 0.07,0.03 0.06,0.04 0.06,0.04 0.06,0.03 0.06,0.04 0.06,0.04 0.06,0.04 0.05,0.05 0.05,0.04 0.05,0.04 0.05,0.05 0.05,0.04 0.04,0.05 0.05,0.05 0.04,0.04 0.04,0.05 0.03,0.05 0.04,0.05 0.03,0.05 0.03,0.05 0.03,0.06 0.02,0.05 0.02,0.06 0.02,0.05 0.02,0.06 0.02,0.05 0.01,0.06 0.01,0.06 0,0.06 0.01,0.06 0,0.06 c 0,0.91 -0.89,1.48 -1.79,1.48 l -0.01,-0.25 c 0.73,0 1.36,-0.51 1.36,-1.23 0,-0.57 -0.39,-1.04 -0.98,-1.39 l -1.24,0.8 c -0.45,0.29 -0.49,0.63 -0.49,0.8 0,0.6 0.64,1.02 1.35,1.02 l 0.01,0.25 c -1,0 -1.8,-0.73 -1.8,-1.66 0,-0.18 0.02,-0.62 0.44,-1.09 0.11,-0.12 0.47,-0.37 0.72,-0.54 l 0.23,-0.15 1.23,-0.77 c 0.27,-0.19 0.74,-0.49 0.74,-1.09 0,-0.74 -0.74,-1.26 -1.56,-1.26 -0.86,0 -1.57,0.62 -1.57,1.44 0,0.58 0.32,1.22 1.16,1.68 h 0 l -0.23,0.15 c -0.57,-0.28 -1.43,-0.84 -1.43,-1.83 0,-1.05 1.02,-1.71 2.06,-1.71 1.12,0 2.07,0.82 2.07,1.88 0,0.36 -0.11,0.81 -0.49,1.23 -0.19,0.2 -0.35,0.3 -0.98,0.7 z"
         inkscape:connector-curvature="0"
         style="fill:#000000;stroke-width:0" /></g>    <g
       id="g6293"
       transform="matrix(1,0,0,-1,-67.880714,830.33861)"
       xml:space="preserve"
       stroke-miterlimit="10.433"
       font-style="normal"
       font-variant="normal"
       font-weight="normal"
       font-stretch="normal"
       font-size-adjust="none"
       letter-spacing="normal"
       word-spacing="normal"
       ns0:text="c"
       ns0:preamble=""
       style="font-style:normal;font-variant:normal;font-weight:normal;font-stretch:normal;letter-spacing:normal;word-spacing:normal;text-anchor:start;fill:none;stroke:#000000;stroke-linecap:butt;stroke-linejoin:miter;stroke-miterlimit:10.43299961;stroke-opacity:1;stroke-dasharray:none;stroke-dashoffset:0"><path
         d="m 224.6,659.4 0,0.08 0,0.07 0,0.07 0.01,0.07 0,0.07 0.01,0.07 0,0.06 0.01,0.06 0.01,0.06 0.01,0.06 0.01,0.06 0.01,0.06 0.03,0.11 0.03,0.1 0.04,0.1 0.03,0.09 0.04,0.09 0.04,0.08 0.05,0.07 0.04,0.07 0.05,0.07 0.05,0.06 0.05,0.05 0.05,0.05 0.06,0.05 0.05,0.04 0.06,0.04 0.05,0.03 0.06,0.03 0.06,0.03 0.05,0.02 0.06,0.02 0.06,0.01 0.05,0.02 0.05,0.01 0.06,0 0.05,0.01 0.05,0 c 0.09,0 0.72,-0.01 1.06,-0.37 -0.4,-0.03 -0.46,-0.33 -0.46,-0.46 0,-0.26 0.17,-0.45 0.45,-0.45 0.26,0 0.46,0.16 0.46,0.46 0,0.68 -0.75,1.06 -1.52,1.06 -1.24,0 -2.16,-1.07 -2.16,-2.3 0,-1.27 0.99,-2.25 2.14,-2.25 1.33,0 1.65,1.19 1.65,1.29 0,0.1 -0.1,0.1 -0.13,0.1 -0.09,0 -0.11,-0.04 -0.13,-0.1 -0.29,-0.93 -0.93,-1.05 -1.3,-1.05 -0.53,0 -1.4,0.43 -1.4,2.03 z"
         id="path6295"
         inkscape:connector-curvature="0"
         style="fill:#000000;stroke-width:0" /></g>  </g>
  <g
     id="g5274"
     transform="matrix(1.5751093,0,0,-1.5751093,-286.46309,1099.3501)"
     xml:space="preserve"
     stroke="black"
     stroke-linecap="butt"
     stroke-linejoin="miter"
     stroke-miterlimit="10.433"
     stroke-dasharray="none"
     stroke-dashoffset="0"
     stroke-opacity="1"
     fill="none"
     fill-rule="evenodd"
     fill-opacity="1"
     font-style="normal"
     font-variant="normal"
     font-weight="normal"
     font-stretch="normal"
     font-size-adjust="none"
     letter-spacing="normal"
     word-spacing="normal"
     text-anchor="start"
     ns0:text="$t$"
     ns0:preamble=""
     style="font-style:normal;font-variant:normal;font-weight:normal;font-stretch:normal;letter-spacing:normal;word-spacing:normal;text-anchor:start;fill:none;stroke:#000000;stroke-linecap:butt;stroke-linejoin:miter;stroke-miterlimit:10.43299961;stroke-opacity:1;stroke-dasharray:none;stroke-dashoffset:0"><path
       d="M225.48,661.21 H226.42 C226.62,661.21,226.71,661.21,226.71,661.41 C226.71,661.52,226.62,661.52,226.44,661.52 H225.56 C225.92,662.93,225.97,663.13,225.97,663.18 C225.97,663.35,225.85,663.45,225.68,663.45 C225.65,663.45,225.37,663.44,225.28,663.1 L224.9,661.52 H223.96 C223.76,661.52,223.66,661.52,223.66,661.33 C223.66,661.21,223.74,661.21,223.94,661.21 H224.82 C224.1,658.39,224.06,658.22,224.06,658.04 C224.06,657.5,224.44,657.13,224.97,657.13 C225.99,657.13,226.56,658.58,226.56,658.66 C226.56,658.76,226.48,658.76,226.44,658.76 C226.35,658.76,226.34,658.72,226.29,658.62 C225.86,657.58,225.33,657.34,224.99,657.34 C224.79,657.34,224.69,657.47,224.69,657.8 C224.69,658.04,224.71,658.11,224.74,658.28 Z "
       stroke-width="0"
       fill="black"
       id="path5276" /></g></svg>
